<svg width="60" height="60" viewBox="0 0 60 60" fill="none" xmlns="http://www.w3.org/2000/svg">
<g clip-path="url(#clip0_5624_36350)">
<path d="M54.5717 23.7605L56.6091 18.258C56.977 17.264 56.9341 16.187 56.4882 15.2254C56.0423 14.2639 55.2479 13.5354 54.2515 13.1742L52.0319 12.3697C48.173 10.9709 44.1351 10.2617 40.0306 10.2617H38.7613C38.3373 10.2617 37.9662 10.4841 37.7553 10.818C32.7258 12.8369 28.9287 12.7496 26.6059 12.3071C24.6718 11.9387 23.4179 11.272 22.9081 10.9589C22.7206 10.5479 22.3072 10.2617 21.826 10.2617H20.5568C16.4522 10.2617 12.4144 10.9709 8.55549 12.3697L6.33596 13.1742C5.33952 13.5354 4.5451 14.2638 4.0992 15.2254C3.65319 16.1871 3.61042 17.264 3.97838 18.258L6.01569 23.7605C6.70323 25.6175 8.67596 26.6824 10.6063 26.2374L13.3901 25.5956V50.0006C13.3901 55.515 17.8764 60.0012 23.3907 60.0012H36.8814C42.3957 60.0012 46.882 55.515 46.882 50.0006V25.5228L49.9809 26.2373C51.9109 26.6826 53.8843 25.6174 54.5717 23.7605ZM29.484 14.9578C31.6687 14.9578 34.2704 14.5837 37.2641 13.5418C36.3636 16.539 33.5803 18.7293 30.2938 18.7293C27.1262 18.7293 24.4263 16.6945 23.4287 13.8637C24.8221 14.4189 26.8521 14.9578 29.484 14.9578ZM26.2292 57.6215C25.7545 57.6215 25.34 57.3129 25.2211 56.8708C25.0598 56.2706 24.8564 55.6725 24.6164 55.0932C24.5878 55.0241 24.5563 54.9491 24.5225 54.8694C25.208 54.5241 26.2103 54.1038 27.4426 53.831C30.2442 53.2106 33.011 53.5719 35.6831 54.903C35.674 54.9248 35.6647 54.947 35.656 54.9678C35.407 55.5692 35.1974 56.1904 35.0332 56.8145C34.9081 57.2895 34.4901 57.6214 34.0165 57.6214H26.2292V57.6215ZM36.2627 53.5986C32.582 51.7919 29.2789 51.9511 27.0684 52.4516C25.7594 52.748 24.6913 53.188 23.9345 53.565C22.6099 50.7869 19.9339 46.1444 16.5017 45.2202C16.0708 45.104 15.7699 44.6971 15.7699 44.2305V41.6657H44.5024V44.1051C44.5024 44.5718 44.2015 44.9788 43.7706 45.0948C40.2724 46.037 37.5594 50.8423 36.2627 53.5986ZM44.5025 40.2379H15.7699V37.4029H44.5024L44.5025 40.2379ZM44.5025 35.9751H15.7699V29.7904H44.5024L44.5025 35.9751ZM15.7699 50.0005V47.4822C15.8076 47.4938 15.8444 47.5075 15.8829 47.5179C18.2311 48.1503 20.857 52.2356 22.4178 56.0039C22.6183 56.4881 22.7884 56.9875 22.9229 57.4884C22.9339 57.5293 22.9483 57.5684 22.9608 57.6085C18.9581 57.3847 15.7699 54.0583 15.7699 50.0005ZM37.2756 57.6113C37.2962 57.5482 37.3174 57.4852 37.3345 57.4203C37.4715 56.8998 37.6465 56.381 37.8546 55.8785C39.4155 52.1102 42.0416 48.0249 44.3897 47.3926C44.4281 47.3823 44.4648 47.3686 44.5026 47.357V50.0006C44.5025 54.0705 41.2953 57.4055 37.2756 57.6113ZM50.5158 23.9186L45.9596 22.868C45.6062 22.7864 45.2352 22.8706 44.9514 23.0963C44.6678 23.322 44.5024 23.6648 44.5024 24.0274V28.3626H15.7699V24.1C15.7699 23.7375 15.6046 23.3947 15.321 23.169C15.037 22.9426 14.6631 22.8594 14.3128 22.9407L10.0718 23.9186C9.30502 24.0951 8.52081 23.6722 8.24752 22.9343L6.21022 17.4317C6.06397 17.0367 6.08096 16.6087 6.25827 16.2264C6.43545 15.8443 6.75116 15.5548 7.14702 15.4113L9.36667 14.6068C12.9648 13.3026 16.7298 12.6412 20.557 12.6412H20.7094C21.2974 17.4072 25.3714 21.1088 30.2939 21.1088C35.2164 21.1088 39.2904 17.4072 39.8784 12.6412H40.0309C43.858 12.6412 47.623 13.3025 51.2212 14.6068L53.4408 15.4113C53.8367 15.5548 54.1524 15.8443 54.3296 16.2264C54.5068 16.6086 54.5239 17.0366 54.3776 17.4316L52.3403 22.9341C52.067 23.6721 51.2829 24.0956 50.5158 23.9186Z" fill="#73BE48"/>
<path d="M17.4731 14.7307C17.2261 14.7593 16.9791 14.7893 16.7325 14.8211C16.0808 14.9049 15.6203 15.5012 15.7042 16.1529C15.7813 16.7533 16.2932 17.1911 16.8828 17.1911C16.9333 17.1911 16.9845 17.1879 17.036 17.1812C17.2729 17.1508 17.5098 17.1219 17.7471 17.0945C18.3999 17.0189 18.8677 16.4284 18.7921 15.7756C18.7164 15.1227 18.1247 14.6548 17.4731 14.7307Z" fill="#73BE48"/>
<path d="M12.6759 15.5722C11.4493 15.8928 10.3729 16.2793 9.38511 16.7536C8.79261 17.038 8.543 17.7487 8.82754 18.3412C9.03226 18.7676 9.45765 19.0163 9.90097 19.0163C10.0736 19.0163 10.2491 18.9786 10.4151 18.8988C11.264 18.4912 12.2004 18.1562 13.2777 17.8745C13.9135 17.7083 14.2941 17.0581 14.1279 16.4224C13.9618 15.7868 13.3117 15.4059 12.6759 15.5722Z" fill="#73BE48"/>
<path d="M37.1241 43.3926C36.7298 43.3926 36.4102 43.7123 36.4102 44.1065V45.5461C36.4102 45.9403 36.7298 46.26 37.1241 46.26C37.5183 46.26 37.838 45.9403 37.838 45.5461V44.1065C37.838 43.7121 37.5183 43.3926 37.1241 43.3926Z" fill="#73BE48"/>
<path d="M39.4073 34.8108C39.8015 34.8108 40.1212 34.4911 40.1212 34.0969V32.6573C40.1212 32.263 39.8015 31.9434 39.4073 31.9434C39.013 31.9434 38.6934 32.263 38.6934 32.6573V34.0969C38.6935 34.4911 39.013 34.8108 39.4073 34.8108Z" fill="#73BE48"/>
<path d="M34.7159 33.8089C35.1101 33.8089 35.4298 33.4892 35.4298 33.095V31.6553C35.4298 31.2611 35.1101 30.9414 34.7159 30.9414C34.3216 30.9414 34.002 31.2611 34.002 31.6553V33.095C34.002 33.4893 34.3215 33.8089 34.7159 33.8089Z" fill="#73BE48"/>
<path d="M54.2927 45.2051C53.0739 45.2051 52.0859 46.1931 52.0859 47.412C52.0859 48.6307 53.0739 49.6187 54.2927 49.6187C55.5114 49.6187 56.4995 48.6307 56.4995 47.412C56.4995 46.1931 55.5114 45.2051 54.2927 45.2051Z" fill="#73BE48"/>
<path d="M57.4336 36.5918C56.9175 36.5918 56.499 37.0103 56.499 37.5264C56.499 38.0425 56.9175 38.4609 57.4336 38.4609C57.9497 38.4609 58.3682 38.0426 58.3682 37.5264C58.3682 37.0102 57.9498 36.5918 57.4336 36.5918Z" fill="#73BE48"/>
<path d="M40.6887 4.03307L42.5616 4.87682C42.6417 4.91291 42.7054 4.98439 42.7374 5.07475L43.487 7.18271C43.5929 7.48049 43.9675 7.48049 44.0734 7.18271L44.8231 5.07475C44.8552 4.98451 44.9187 4.91303 44.9988 4.87682L46.8716 4.03307C47.1362 3.91389 47.1362 3.49225 46.8716 3.37307L44.9988 2.52932C44.9187 2.49322 44.8551 2.42162 44.8231 2.33139L44.0734 0.223418C43.9675 -0.0744727 43.5929 -0.0744727 43.487 0.223418L42.7374 2.33139C42.7053 2.42162 42.6417 2.49311 42.5616 2.52932L40.6887 3.37307C40.4241 3.49225 40.4241 3.91377 40.6887 4.03307Z" fill="#73BE48"/>
<path d="M8.01334 34.8006L6.14045 33.9568C6.06029 33.9208 5.99678 33.8492 5.96467 33.7589L5.21502 31.6511C5.10908 31.3533 4.73455 31.3533 4.62861 31.6511L3.87896 33.759C3.84686 33.8493 3.78334 33.9208 3.70307 33.957L1.83029 34.8007C1.56568 34.9199 1.56568 35.3415 1.83029 35.4607L3.70307 36.3046C3.78322 36.3407 3.84686 36.4122 3.87896 36.5025L4.62861 38.6105C4.73455 38.9083 5.10908 38.9083 5.21502 38.6105L5.96467 36.5025C5.99678 36.4123 6.06029 36.3407 6.14045 36.3046L8.01334 35.4607C8.27795 35.3414 8.27795 34.9199 8.01334 34.8006Z" fill="#73BE48"/>
</g>
<defs>
<clipPath id="clip0_5624_36350">
<rect width="60" height="60" fill="white"/>
</clipPath>
</defs>
</svg>
