<svg width="60" height="60" viewBox="0 0 60 60" fill="none" xmlns="http://www.w3.org/2000/svg">
<g clip-path="url(#clip0_5624_36362)">
<path d="M45.3701 11.1602H14.5889C9.69203 11.1602 5.70801 15.1441 5.70801 20.0411V50.8224C5.70801 55.7194 9.69191 59.7033 14.5889 59.7033H45.3702C50.2671 59.7033 54.2512 55.7194 54.2512 50.8224V20.0411C54.2512 15.1441 50.2672 11.1602 45.3701 11.1602ZM14.5889 13.5405H29.2655V19.328C29.2655 19.6688 28.9884 19.9459 28.6476 19.9459H23.6979C22.5698 19.9459 21.6518 20.8639 21.6518 21.992V26.7782C21.6518 27.9064 22.5698 28.8242 23.6979 28.8242H28.6476C28.9884 28.8242 29.2655 29.1013 29.2655 29.4421V34.8463H23.6979C22.5698 34.8463 21.6518 35.7643 21.6518 36.8924V41.6785C21.6518 42.0193 21.3747 42.2964 21.034 42.2964H16.0844C15.7436 42.2964 15.4664 42.0193 15.4664 41.6785V36.8924C15.4664 35.7643 14.5485 34.8463 13.4204 34.8463H8.08832V20.0411C8.08832 16.4566 11.0044 13.5405 14.5889 13.5405ZM8.08832 50.8223V36.2746H13.4204C13.7611 36.2746 14.0383 36.5518 14.0383 36.8925V41.6786C14.0383 42.8068 14.9562 43.7247 16.0844 43.7247H21.034C22.1622 43.7247 23.08 42.8068 23.08 41.6786V36.8925C23.08 36.5518 23.3571 36.2746 23.6979 36.2746H29.2655V41.6787C29.2655 42.8069 30.1834 43.7248 31.3116 43.7248H36.2611C36.6019 43.7248 36.8791 44.002 36.8791 44.3427V49.1289C36.8791 49.4697 36.6019 49.7468 36.2611 49.7468H31.3116C30.1834 49.7468 29.2655 50.6648 29.2655 51.7929V57.3229H14.5889C11.0044 57.3229 8.08832 54.4068 8.08832 50.8223ZM45.3701 57.3229H30.6937V51.7929C30.6937 51.4521 30.9708 51.175 31.3116 51.175H36.2611C37.3893 51.175 38.3072 50.2571 38.3072 49.1289V44.3427C38.3072 43.2146 37.3893 42.2966 36.2611 42.2966H31.3116C30.9708 42.2966 30.6937 42.0195 30.6937 41.6787V36.2746H36.2611C37.3893 36.2746 38.3072 35.3567 38.3072 34.2285V29.4423C38.3072 29.1016 38.5844 28.8244 38.9252 28.8244H43.8748C44.2155 28.8244 44.4926 29.1016 44.4926 29.4423V34.2285C44.4926 35.3567 45.4105 36.2746 46.5387 36.2746H51.8709V50.8223C51.8709 54.4068 48.9548 57.3229 45.3701 57.3229ZM51.8709 34.8464H46.5387C46.1979 34.8464 45.9208 34.5693 45.9208 34.2285V29.4423C45.9208 28.3142 45.003 27.3962 43.8748 27.3962H38.9252C37.797 27.3962 36.8791 28.3142 36.8791 29.4423V34.2285C36.8791 34.5693 36.6019 34.8464 36.2611 34.8464H30.6937V29.4422C30.6937 28.3141 29.7757 27.3961 28.6476 27.3961H23.6979C23.3571 27.3961 23.08 27.119 23.08 26.7783V21.9921C23.08 21.6514 23.3571 21.3742 23.6979 21.3742H28.6476C29.7757 21.3742 30.6937 20.4563 30.6937 19.3281V13.5406H45.3701C48.9547 13.5406 51.8709 16.4568 51.8709 20.0412V34.8464Z" fill="#73BE48"/>
<path d="M10.7041 27.9337C10.7076 28.5889 11.2398 29.1175 11.8941 29.1175H11.9005C12.5579 29.114 13.0878 28.5784 13.0843 27.9212C13.0821 27.5146 13.0794 27.108 13.0767 26.7014C13.0698 25.6814 13.0627 24.6266 13.0656 23.5919C13.0673 22.9347 12.5359 22.4002 11.8787 22.3985C11.2203 22.3938 10.687 22.9279 10.6852 23.5853C10.6823 24.6312 10.6896 25.6918 10.6965 26.7174C10.6993 27.1229 10.7021 27.5283 10.7041 27.9337Z" fill="#73BE48"/>
<path d="M11.8334 20.331C11.9581 20.3724 12.0846 20.3922 12.2091 20.3922C12.7077 20.3922 13.1724 20.0764 13.3383 19.5774C13.5549 18.9261 14.0505 18.484 14.428 18.228C14.9721 17.8591 15.1139 17.1189 14.7449 16.575C14.376 16.0309 13.6355 15.889 13.092 16.2582C12.1136 16.9218 11.4178 17.8097 11.0796 18.8261C10.8723 19.4498 11.2097 20.1236 11.8334 20.331Z" fill="#73BE48"/>
<path d="M47.6848 47.2637C47.2905 47.2637 46.9707 47.5834 46.9707 47.9778V49.3528C46.9707 49.7471 47.2905 50.0669 47.6848 50.0669C48.0792 50.0669 48.399 49.7472 48.399 49.3528V47.9778C48.399 47.5834 48.0793 47.2637 47.6848 47.2637Z" fill="#73BE48"/>
<path d="M43.2785 40.666C42.8841 40.666 42.5645 40.9857 42.5645 41.38V42.755C42.5645 43.1493 42.8841 43.4691 43.2785 43.4691C43.6728 43.4691 43.9926 43.1495 43.9926 42.755V41.38C43.9926 40.9857 43.6728 40.666 43.2785 40.666Z" fill="#73BE48"/>
<path d="M42.0998 51.4062C41.7054 51.4062 41.3857 51.7259 41.3857 52.1204V53.4955C41.3857 53.8898 41.7054 54.2095 42.0998 54.2095C42.4941 54.2095 42.8138 53.8898 42.8138 53.4955V52.1204C42.8138 51.7259 42.4941 51.4062 42.0998 51.4062Z" fill="#73BE48"/>
<path d="M6.07966 7.45491L8.60505 6.31702C8.96188 6.15624 8.96188 5.58788 8.60505 5.4271L6.07966 4.28933C5.97149 4.24058 5.88583 4.14425 5.84259 4.02249L4.83161 1.18011C4.68876 0.778506 4.18368 0.778506 4.04095 1.18011L3.03009 4.02249C2.98685 4.14425 2.90118 4.24069 2.79302 4.28933L0.267627 5.4271C-0.089209 5.58788 -0.089209 6.15624 0.267627 6.31702L2.79302 7.45491C2.90118 7.50354 2.98685 7.60011 3.03009 7.72175L4.04095 10.5642C4.1838 10.9658 4.68888 10.9658 4.83161 10.5642L5.84247 7.72175C5.88571 7.60011 5.97149 7.50366 6.07966 7.45491Z" fill="#73BE48"/>
<path d="M59.8523 12.6532C60.3192 11.5268 59.7846 10.2351 58.6581 9.76819C57.5317 9.30129 56.2401 9.83594 55.7731 10.9624C55.3062 12.0888 55.8409 13.3805 56.9673 13.8474C58.0938 14.3143 59.3854 13.7796 59.8523 12.6532Z" fill="#73BE48"/>
<path d="M14.9719 2.18016C15.4881 2.18016 15.9067 1.76168 15.9067 1.24535C15.9067 0.729023 15.4882 0.310547 14.9719 0.310547C14.4557 0.310547 14.0371 0.729023 14.0371 1.24535C14.0371 1.76168 14.4556 2.18016 14.9719 2.18016Z" fill="#73BE48"/>
<path d="M44.6028 4.33283L46.4761 5.17682C46.5562 5.21291 46.6199 5.2844 46.652 5.37475L47.4019 7.4833C47.5078 7.78108 47.8825 7.78108 47.9884 7.4833L48.7383 5.37475C48.7704 5.2844 48.8339 5.21291 48.9142 5.17682L50.7874 4.33283C51.052 4.21365 51.052 3.79189 50.7874 3.67271L48.9142 2.82873C48.8339 2.79264 48.7704 2.72115 48.7383 2.6308L47.9884 0.522246C47.8825 0.224355 47.5078 0.224355 47.4019 0.522246L46.652 2.6308C46.6199 2.72115 46.5564 2.79264 46.4761 2.82873L44.6028 3.67271C44.3381 3.79189 44.3381 4.21354 44.6028 4.33283Z" fill="#73BE48"/>
</g>
<defs>
<clipPath id="clip0_5624_36362">
<rect width="60" height="60" fill="white"/>
</clipPath>
</defs>
</svg>
