<svg width="60" height="60" viewBox="0 0 60 60" fill="none" xmlns="http://www.w3.org/2000/svg">
<g clip-path="url(#clip0_5594_819)">
<path d="M27.0169 45.2597H32.9834C33.3745 45.2597 33.6916 44.9426 33.6916 44.5514V40.4856C33.6916 40.0945 33.3745 39.7773 32.9834 39.7773H27.0169C26.6257 39.7773 26.3086 40.0946 26.3086 40.4856V44.5514C26.3085 44.9426 26.6257 45.2597 27.0169 45.2597ZM27.7252 41.1939H32.275V43.843H27.7252V41.1939Z" fill="black"/>
<path d="M7.78102 31.5628H10.0289C11.1757 31.5628 12.1088 30.6298 12.1088 29.483V25.7869C12.1088 24.6401 11.1757 23.707 10.0289 23.707H7.78102C6.63422 23.707 5.70117 24.64 5.70117 25.7869V29.483C5.70117 30.6299 6.63422 31.5628 7.78102 31.5628ZM7.11785 25.787C7.11785 25.4214 7.41539 25.1238 7.78102 25.1238H10.0289C10.3946 25.1238 10.6921 25.4214 10.6921 25.787V29.4831C10.6921 29.8488 10.3945 30.1463 10.0289 30.1463H7.78102C7.41527 30.1463 7.11785 29.8487 7.11785 29.4831V25.787Z" fill="black"/>
<path d="M50.1707 31.5628H52.4186C53.5655 31.5628 54.4985 30.6298 54.4985 29.483V25.7869C54.4985 24.6401 53.5655 23.707 52.4186 23.707H50.1707C49.0239 23.707 48.0908 24.64 48.0908 25.7869V29.483C48.0909 30.6299 49.024 31.5628 50.1707 31.5628ZM49.5076 25.787C49.5076 25.4214 49.805 25.1238 50.1708 25.1238H52.4187C52.7844 25.1238 53.082 25.4214 53.082 25.787V29.4831C53.082 29.8488 52.7844 30.1463 52.4187 30.1463H50.1708C49.805 30.1463 49.5076 29.8487 49.5076 29.4831V25.787Z" fill="black"/>
<path d="M7.78102 45.3636H10.0289C11.1757 45.3636 12.1088 44.4305 12.1088 43.2838V39.5877C12.1088 38.4409 11.1757 37.5078 10.0289 37.5078H7.78102C6.63422 37.5078 5.70117 38.4409 5.70117 39.5877V43.2838C5.70117 44.4307 6.63422 45.3636 7.78102 45.3636ZM7.11785 39.5878C7.11785 39.222 7.41539 38.9246 7.78102 38.9246H10.0289C10.3946 38.9246 10.6921 39.2222 10.6921 39.5878V43.2839C10.6921 43.6496 10.3945 43.947 10.0289 43.947H7.78102C7.41527 43.947 7.11785 43.6495 7.11785 43.2839V39.5878Z" fill="black"/>
<path d="M58.8498 52.3582C59.0509 51.89 59.1575 51.3823 59.1575 50.8613V20.6228C59.1575 18.5304 57.4552 16.8281 55.3628 16.8281H47.2269C45.4139 16.8281 43.8947 18.1065 43.521 19.8089H16.8629C16.4589 18.1022 14.9234 16.8281 13.0949 16.8281H4.71539C2.57988 16.8281 0.842461 18.5655 0.842461 20.7011V51.8448C0.842461 52.0909 0.865547 52.3337 0.910898 52.572C0.34875 53.1306 0 53.9038 0 54.757V56.6023C0 58.3016 1.38258 59.6841 3.08191 59.6841H56.9181C58.6174 59.6841 60 58.3016 60 56.6023V54.757C60 53.7886 59.5506 52.9235 58.8498 52.3582ZM47.227 19.1892H55.3629C56.1534 19.1892 56.7964 19.8323 56.7964 20.6228V50.8613C56.7964 51.1552 56.7061 51.4371 56.5413 51.6752H55.8237V48.0094C55.8237 46.6472 54.7155 45.5391 53.3534 45.5391C51.9913 45.5391 50.8832 46.6472 50.8832 48.0094V51.6752H49.0186V47.4004C51.7702 46.3065 53.7213 43.6188 53.7213 40.4823C53.7213 36.3782 50.3824 33.0393 46.2783 33.0393C46.1152 33.0393 45.9539 33.0464 45.7934 33.0568V20.6228C45.7935 19.8322 46.4365 19.1892 47.227 19.1892ZM54.407 51.6751H52.2998V48.0093C52.2998 47.4282 52.7725 46.9556 53.3534 46.9556C53.9343 46.9556 54.407 47.4282 54.407 48.0093V51.6751ZM43.538 51.4605H36.4001V39.7468C36.4001 39.2857 36.2834 38.8514 36.0782 38.4716H39.1134C38.9336 39.1117 38.8354 39.7854 38.8354 40.4821C38.8354 43.6186 40.7865 46.3062 43.538 47.4001V51.4605ZM25.0166 39.7468C25.0166 39.0437 25.5887 38.4716 26.2918 38.4716H33.7082C34.4113 38.4716 34.9834 39.0437 34.9834 39.7468V51.32H33.6916V47.24C33.6916 46.8489 33.3745 46.5318 32.9834 46.5318H27.0169C26.6257 46.5318 26.3086 46.8489 26.3086 47.24V51.32H25.0168V39.7468H25.0166ZM27.725 51.3202V47.9484H32.2748V51.3202H27.725ZM39.6745 37.055H33.7082H26.2918H16.9678V34.4558H41.9177C40.9828 35.1341 40.2118 36.024 39.6745 37.055ZM43.4324 33.039H16.9679V30.4398H43.4324V33.039ZM23.9218 38.4716C23.7166 38.8514 23.5999 39.2857 23.5999 39.7468V51.4605H18.9164V48.0094C18.9164 46.8264 18.08 45.8359 16.9678 45.5957V38.4717H23.9218V38.4716ZM44.9547 51.6751V47.8049C45.3846 47.8825 45.8264 47.9251 46.2784 47.9251C46.7303 47.9251 47.1721 47.8823 47.602 47.8049V51.6751H44.9547ZM46.2784 46.5086C42.9554 46.5086 40.252 43.8052 40.252 40.4822C40.252 37.1592 42.9554 34.4557 46.2784 34.4557C49.6014 34.4557 52.3048 37.1592 52.3048 40.4822C52.3048 43.8052 49.6014 46.5086 46.2784 46.5086ZM43.4324 29.0232H16.9679V26.424H43.4324V29.0232ZM15.3926 48.0093C15.3926 47.4282 15.8652 46.9556 16.4462 46.9556C17.0271 46.9556 17.4997 47.4282 17.4997 48.0093V51.6751H15.3926V48.0093ZM43.4324 25.0073H16.9679V22.17H43.4324V25.0073ZM4.71539 19.1892H13.0949C13.9286 19.1892 14.6067 19.8674 14.6067 20.7011V46.3179V46.3662C14.2158 46.8033 13.9759 47.3781 13.9759 48.0093V51.6751H12.7534V48.0093C12.7534 46.6471 11.6453 45.5389 10.2831 45.5389C8.92102 45.5389 7.81289 46.6471 7.81289 48.0093V51.6751H6.58395V48.0093C6.58395 46.6471 5.47582 45.5389 4.11363 45.5389C3.79207 45.5389 3.48563 45.6026 3.20355 45.7148V20.7011C3.20355 19.8674 3.88184 19.1892 4.71539 19.1892ZM11.3367 51.6751H9.22945V48.0093C9.22945 47.4282 9.70207 46.9556 10.2831 46.9556C10.8641 46.9556 11.3367 47.4282 11.3367 48.0093V51.6751ZM5.16727 51.6751H3.20355V47.4809C3.38625 47.1674 3.72527 46.9556 4.11363 46.9556C4.69465 46.9556 5.16727 47.4282 5.16727 48.0093V51.6751ZM57.6389 56.6023C57.6389 56.9996 57.3155 57.323 56.9181 57.323H3.08191C2.68441 57.323 2.36109 56.9996 2.36109 56.6023V54.757C2.36109 54.3595 2.68441 54.0362 3.08191 54.0362H56.9181C57.3155 54.0362 57.6389 54.3595 57.6389 54.757V56.6023Z" fill="black"/>
<path d="M44.5159 39.3461C45.1503 39.1962 45.543 38.5603 45.3931 37.9259C45.2431 37.2915 44.6073 36.8988 43.9729 37.0488C43.3385 37.1987 42.9458 37.8346 43.0957 38.469C43.2457 39.1034 43.8815 39.4961 44.5159 39.3461Z" fill="black"/>
<path d="M49.5169 39.0586C49.1257 39.0586 48.8086 39.3757 48.8086 39.7669V41.1953C48.8086 41.5864 49.1257 41.9036 49.5169 41.9036C49.908 41.9036 50.2253 41.5864 50.2253 41.1953V39.7669C50.2253 39.3758 49.908 39.0586 49.5169 39.0586Z" fill="black"/>
<path d="M46.2786 41.6523C45.8874 41.6523 45.5703 41.9696 45.5703 42.3606V43.789C45.5703 44.1802 45.8874 44.4973 46.2786 44.4973C46.6698 44.4973 46.9869 44.1802 46.9869 43.789V42.3606C46.9869 41.9696 46.6698 41.6523 46.2786 41.6523Z" fill="black"/>
<path d="M6.10527 5.71081L8.61039 6.83944C8.71762 6.88772 8.8027 6.98347 8.84559 7.10417L9.84836 9.92382C9.99004 10.3221 10.491 10.3221 10.6327 9.92382L11.6355 7.10417C11.6784 6.98347 11.7634 6.88772 11.8707 6.83944L14.3758 5.71081C14.7297 5.55132 14.7297 4.98741 14.3758 4.82804L11.8707 3.6994C11.7634 3.65112 11.6784 3.55538 11.6355 3.43468L10.6327 0.615146C10.491 0.216826 9.99004 0.216826 9.84836 0.615146L8.84559 3.43468C8.8027 3.55538 8.71773 3.65112 8.61039 3.6994L6.10527 4.82804C5.75137 4.98753 5.75137 5.55144 6.10527 5.71081Z" fill="black"/>
<path d="M51.0427 7.12176C52.0717 6.4857 52.3903 5.13585 51.7543 4.10678C51.1182 3.07771 49.7683 2.75912 48.7393 3.39518C47.7102 4.03124 47.3916 5.3811 48.0277 6.41017C48.6637 7.43923 50.0136 7.75783 51.0427 7.12176Z" fill="black"/>
<path d="M20.7173 12.5695C21.2295 12.5695 21.6445 12.1543 21.6445 11.6421C21.6445 11.13 21.2293 10.7148 20.7173 10.7148C20.2052 10.7148 19.79 11.13 19.79 11.6421C19.79 12.1543 20.2051 12.5695 20.7173 12.5695Z" fill="black"/>
<path d="M34.7624 10.5483L36.6206 11.3855C36.7002 11.4214 36.7633 11.4923 36.7951 11.5818L37.5389 13.6734C37.644 13.9689 38.0156 13.9689 38.1208 13.6734L38.8646 11.5818C38.8964 11.4923 38.9595 11.4214 39.039 11.3855L40.8973 10.5483C41.1598 10.4301 41.1598 10.0117 40.8973 9.89349L39.0389 9.0563C38.9594 9.02044 38.8963 8.94954 38.8644 8.86001L38.1206 6.76845C38.0155 6.47302 37.6439 6.47302 37.5388 6.76845L36.795 8.86001C36.7631 8.94954 36.7001 9.02044 36.6205 9.0563L34.7623 9.89349C34.4998 10.0117 34.4998 10.4301 34.7624 10.5483Z" fill="black"/>
</g>
<defs>
<clipPath id="clip0_5594_819">
<rect width="60" height="60" fill="white"/>
</clipPath>
</defs>
</svg>
