<svg width="110" height="118" viewBox="0 0 110 118" fill="none" xmlns="http://www.w3.org/2000/svg">
<g clip-path="url(#clip0_5594_1830)">
<path d="M78.9485 31.1132C78.7456 35.5584 77.5279 40.6098 74.4836 44.853C73.0629 47.0756 71.0334 48.692 68.598 50.3084C66.9743 51.5208 65.3507 52.531 63.7271 53.5413C62.9153 53.9454 62.3064 54.3495 61.4946 54.7536C59.0592 56.168 56.4208 57.3804 53.7825 58.3906C51.1441 59.4009 48.5057 60.4112 46.0703 60.8153C45.6644 60.8153 45.2585 61.0173 44.8526 61.0173C44.8526 61.0173 44.8526 61.0173 44.8526 60.8153C44.8526 60.8153 44.6496 60.8153 44.2437 61.0173C42.4171 61.2194 40.3876 61.2194 38.764 61.0173C36.3286 60.6132 34.2991 59.603 32.4725 58.3906C30.8489 57.1783 29.4282 55.966 28.2105 54.7536C26.7898 53.1372 25.5721 51.7228 24.5574 50.1064C22.9338 47.4797 22.1219 45.2571 21.716 44.2468C21.1072 42.6304 20.9042 41.8221 20.4983 41.216C20.4983 40.8119 20.2954 40.0036 20.0924 38.9934C19.8895 37.9831 19.6865 36.3667 19.6865 33.942C19.6865 31.5173 19.8895 28.4865 21.1072 25.0516C21.1072 25.0516 21.1072 25.0516 21.1072 24.8495C22.1219 21.6167 23.9485 17.9797 26.5869 14.9489C28.0076 13.3324 29.4282 11.918 31.0518 10.5036C32.6755 9.08927 34.502 7.67488 36.1256 6.46255C39.7788 4.0379 43.8378 2.42146 47.8969 1.81529C51.9559 1.20913 56.0149 1.61324 59.2622 2.42146C62.9153 3.63379 65.7566 4.84612 67.7862 6.05844C69.8157 7.27077 71.2363 8.4831 72.0481 9.08927C73.0629 9.89749 73.6718 10.5037 74.0777 10.9078C74.2806 11.5139 74.6865 12.3221 75.0924 13.5345C75.4983 14.5447 76.5131 16.7674 77.3249 19.7982C77.9338 22.0208 78.7456 24.8495 78.9485 28.0824C78.9485 29.0927 78.9485 30.103 78.9485 31.1132Z" fill="white"/>
<path d="M48.3026 39.8016C47.8967 39.5995 47.6938 39.3974 47.2879 39.3974C46.679 39.1954 45.8672 38.9933 45.2583 38.9933C43.8377 38.7913 42.417 38.9933 41.1993 39.3974C38.7639 40.2057 36.7344 41.62 34.9078 42.8324C33.2842 44.0447 31.8635 45.4591 30.8488 46.6714C29.834 47.8837 29.4281 48.894 29.4281 49.5002C29.2251 50.3084 29.2251 50.9146 29.4281 51.1166C29.4281 51.3187 29.631 51.5207 29.834 51.5207C29.834 51.5207 29.631 51.5207 29.631 51.9248C29.631 52.3289 29.631 52.7331 30.2399 53.5413C30.4429 53.7433 30.8488 54.1474 31.4576 54.3495C31.6606 54.3495 31.6606 54.3495 31.8635 54.3495C31.8635 54.3495 32.0665 54.5515 32.2694 54.7536C32.6753 55.1577 34.2989 55.9659 36.5314 56.37C37.7491 56.5721 38.9668 56.5721 40.3875 55.9659C41.6052 55.5618 43.0259 54.7536 44.0406 53.9454C46.2731 52.1269 47.6938 49.5002 48.5056 47.2776C49.1144 45.257 48.9115 43.4385 48.7085 42.8324C48.9115 42.6303 48.9115 42.4283 49.1144 42.2262C49.3174 42.0242 49.3174 41.62 49.3174 41.2159C49.3174 40.6098 48.9115 40.0036 48.3026 39.8016ZM47.0849 46.8735C46.4761 48.692 45.0554 50.9146 43.0259 52.531C42.0111 53.3392 40.9964 53.9454 39.9816 54.3495C38.9668 54.7536 37.9521 54.7536 36.9373 54.7536C35.7196 54.5515 34.7048 54.3495 34.096 54.1474C35.5167 53.5413 36.9373 52.7331 38.7639 51.7228C40.5905 50.7125 42.417 49.2981 44.4465 47.6817C45.4613 46.8735 46.2731 46.0652 47.2879 45.055C47.4908 44.8529 47.6938 44.6509 47.8967 44.2468C47.4908 44.8529 47.2879 45.8632 47.0849 46.8735ZM47.4908 41.418C47.4908 41.418 47.4908 41.62 47.2879 41.62C47.0849 41.8221 46.882 42.0242 46.679 42.2262C46.2731 42.6303 45.8672 43.2365 45.4613 43.6406C44.6495 44.4488 43.6347 45.4591 42.8229 46.0652C40.9964 47.6817 39.1698 48.894 37.5462 50.1063C35.9226 51.1166 34.2989 52.1269 33.0812 52.531C32.8783 52.7331 32.4724 52.7331 32.2694 52.7331C32.0665 52.7331 32.0665 52.7331 31.8635 52.7331H31.6606C31.4576 52.7331 31.2547 52.531 31.0517 52.3289C30.6458 51.9248 30.2399 51.5207 30.2399 51.3187C30.0369 51.1166 30.0369 51.1166 29.834 51.1166C29.834 51.1166 30.0369 51.1166 30.0369 50.9146C30.2399 50.7125 30.2399 50.3084 30.6458 49.5002C30.8488 49.0961 31.2547 48.0858 32.2694 47.0755C33.0812 46.0652 34.5019 44.8529 36.1255 43.6406C37.7491 42.4283 39.5757 41.2159 41.8082 40.6098C42.8229 40.2057 44.0406 40.2057 45.2583 40.2057C45.8672 40.2057 46.2731 40.4077 46.882 40.6098C47.0849 41.2159 47.2879 41.418 47.4908 41.418Z" fill="#145A82"/>
<path d="M56.6238 18.5874C56.6238 18.7895 56.6238 18.9915 56.4208 19.1936C56.2179 19.3956 56.0149 19.5977 55.812 19.5977C55.406 19.5977 54.5942 19.1936 53.3765 18.9915C52.3618 18.7895 51.1441 18.7895 50.9411 18.7895C50.9411 18.3853 50.7382 18.1833 50.7382 18.1833C50.7382 17.9812 50.5352 17.7792 50.7382 17.5771C50.9411 17.173 52.3618 16.971 53.7824 17.173C55.406 17.3751 56.6238 18.1833 56.6238 18.5874Z" fill="#145A82"/>
<path d="M23.3394 31.5185C23.5424 31.7205 23.7453 31.9226 23.7453 32.1246C23.7453 32.3267 23.3394 33.1349 23.1365 33.9431C22.7306 34.7513 22.5276 35.5596 22.3247 35.7616C22.1217 35.9637 21.9188 35.9637 21.7158 35.9637C21.5128 35.9637 21.3099 35.9637 21.1069 35.7616C20.904 35.5596 20.904 34.3472 21.3099 33.337C21.7158 32.3267 22.5276 31.5185 22.9335 31.5185C22.9335 31.1144 23.1365 31.3164 23.3394 31.5185Z" fill="#145A82"/>
<path d="M109.188 15.7589C108.782 15.3547 108.173 15.3547 107.768 15.1527C107.362 14.9506 106.753 14.9506 106.347 14.9506C105.941 14.9506 105.535 14.9506 105.129 14.9506C104.317 14.9506 103.506 15.1527 102.694 15.3547C99.4465 16.163 96.4023 17.5773 93.7639 19.1938C91.1255 20.8102 88.6901 22.6287 86.8635 24.4472C83.8192 27.276 81.7897 29.7006 80.7749 31.3171C80.7749 31.115 80.7749 31.115 80.7749 30.913C80.7749 26.2657 79.7602 22.2246 78.7454 18.9917C77.7307 15.9609 76.7159 13.7383 76.107 12.728C74.6864 10.1013 74.0775 9.49515 73.8746 9.2931C73.6716 8.88899 73.2657 8.48488 72.6569 7.87871C72.048 7.27255 70.6273 5.85817 68.3949 4.44378C66.1624 3.0294 63.3211 1.61502 59.6679 0.604742C56.2178 -0.405532 51.9558 -0.809641 47.4908 -0.203477C43.2288 0.402687 38.7639 2.22118 34.9078 4.64584C33.0812 5.85817 31.2547 7.27255 29.631 8.88899C28.0074 10.3034 26.3838 11.9198 24.9631 13.5362C22.3248 17.3753 20.2952 21.2143 19.2805 24.8513C18.2657 28.2862 18.0628 31.5191 18.0628 34.1458C18.0628 36.7725 18.6716 38.591 18.8746 39.3993C19.2805 40.6116 19.4834 41.4198 19.6864 41.8239C19.6864 42.4301 19.8893 43.4404 20.2952 44.8547C20.7012 46.0671 21.513 48.2897 23.1366 51.1184C23.7454 52.1287 24.5572 53.139 25.369 54.3513C25.1661 54.1493 25.1661 54.1493 24.9631 53.9472C24.1513 53.341 21.513 51.9267 17.6569 50.7143C13.8008 49.7041 8.92993 48.8958 3.85613 49.9061C3.24728 50.1082 2.63842 50.3102 1.82661 50.7143C1.21776 51.1184 0.608899 51.7246 0.202995 52.3308C4.32469e-05 53.139 4.32469e-05 53.9472 0.202995 54.5534C0.405947 55.3616 0.811851 55.9678 1.21776 56.3719C2.23252 57.3821 3.24728 57.9883 4.26204 58.3924C5.2768 58.7965 6.0886 59.2006 7.10336 59.6047C9.33584 60.615 11.1624 61.4232 12.5831 62.0294C12.3801 62.0294 11.9742 62.0294 11.7713 62.0294C10.5535 62.0294 8.72698 62.4335 7.10336 63.2417C5.47975 64.0499 3.85613 65.6664 2.84137 67.4849C1.62366 69.3034 0.811851 71.526 0.608899 73.7486C0.608899 74.3547 0.608899 74.9609 0.608899 75.5671C0.811851 76.1732 1.0148 76.9815 1.62366 77.3856C2.23252 77.9917 3.04432 78.1938 3.65318 78.1938C4.26204 78.1938 5.07384 78.1938 5.6827 77.7897C6.90041 77.3856 7.71222 76.5773 8.32108 75.9712C9.13288 75.365 9.74174 74.7589 10.5535 74.3547C11.7713 73.5465 12.786 72.7383 13.8008 72.1321C13.3949 72.9404 12.786 73.9506 12.3801 74.9609C11.7713 76.3753 11.3654 77.9917 11.3654 79.6082C11.3654 80.4164 11.3654 81.4267 11.3654 82.2349C11.3654 82.639 11.3654 83.0431 11.5683 83.6493C11.5683 84.0534 11.7713 84.6595 12.1772 85.2657C12.1772 86.478 12.786 86.6801 13.3949 86.8821C14.0037 87.0842 14.6126 87.0842 15.0185 86.8821C16.2362 86.6801 16.8451 85.8719 17.6569 85.2657C18.8746 84.0534 19.8893 82.841 20.7012 81.8308C21.7159 80.8205 22.5277 79.8102 23.1366 79.002C23.1366 79.4061 23.1366 79.6082 23.3395 80.0123C23.5425 80.6184 23.5425 81.2246 23.9484 82.0328C24.1513 82.4369 24.1513 82.639 24.3543 83.0431C24.5572 83.4472 24.7602 83.8513 24.9631 84.2554C25.369 84.6595 25.572 85.0636 26.3838 85.2657C26.9927 85.4678 27.8045 85.2657 28.4133 84.8616C29.0222 84.4575 29.2251 84.0534 29.4281 83.6493C29.834 83.2452 30.0369 82.841 30.2399 82.4369C30.6458 81.6287 31.0517 80.6184 31.2547 80.0123C31.2547 79.8102 31.4576 79.6082 31.4576 79.4061C31.6606 79.8102 31.8635 80.2143 32.0665 80.6184C32.6753 81.4267 33.2842 82.0328 34.096 82.639C35.5166 83.4472 36.9373 83.4472 37.5462 83.2452C37.9521 83.0431 38.155 82.841 38.358 82.841C38.7639 85.0636 39.5757 87.2862 40.3875 89.3068C40.5905 89.913 40.7934 90.3171 41.1993 90.9232C41.4023 91.3273 41.8082 91.9335 42.0111 92.3376C42.0111 92.5397 42.2141 92.5397 42.2141 92.7417C42.0111 92.7417 42.0111 92.5397 41.8082 92.5397C40.5905 92.1356 36.9373 91.1253 32.0665 90.5191C29.631 90.3171 26.7897 90.115 23.7454 90.7212C20.7012 91.3273 17.6569 92.5397 15.4244 95.1664C14.8155 95.7725 14.2067 96.5808 14.2067 97.7931C14.0037 98.8034 14.6126 100.016 15.4244 100.622C16.2362 100.622 17.048 101.026 18.0628 101.228C18.8746 101.43 19.6864 101.43 20.4982 101.43C23.3395 101.43 26.1809 101.228 28.6163 101.026C33.4871 100.622 37.1403 99.8136 38.5609 99.6116C38.7639 99.6116 38.9668 99.4095 39.1698 99.4095L38.9668 99.6116C38.358 100.218 36.3285 102.238 34.2989 105.269C33.2842 106.886 32.2694 108.704 31.6606 110.725C31.2547 111.735 31.0517 112.947 30.8488 113.957C30.8488 114.564 30.6458 114.968 30.6458 115.776C30.6458 116.18 30.6458 116.584 31.0517 116.988C31.2547 117.392 31.6606 117.797 32.2694 117.797C33.2842 117.999 34.096 117.594 34.5019 117.392C35.1107 116.988 35.5167 116.584 35.9226 116.382C36.7344 115.574 37.5462 114.968 38.358 114.16C39.9816 112.745 41.1993 111.129 42.417 109.714C43.2288 108.704 43.8377 107.896 44.4465 107.088C44.2436 108.3 44.0406 109.512 44.2436 110.927C44.2436 111.331 44.4465 111.735 44.4465 111.937C44.4465 112.341 44.6495 112.745 44.8524 113.149C45.0554 113.553 45.6642 113.957 46.2731 114.16C46.882 114.16 47.4908 114.16 47.8967 113.957C48.9115 113.351 49.3174 112.745 49.5203 112.139C49.9262 111.533 50.1292 110.927 50.5351 110.32C51.144 109.108 51.7528 108.098 52.1587 107.088C52.3617 106.684 52.5646 106.077 52.7676 105.673C52.7676 105.875 52.7676 105.875 52.9705 106.077C53.3764 106.684 53.7823 107.694 55 108.3C55.6089 108.502 56.4207 108.502 57.0296 108.098C57.6384 107.694 58.0443 107.088 58.2473 106.684C58.6532 105.673 58.8561 104.865 59.0591 104.057C59.262 103.249 59.262 102.44 59.262 101.632C59.262 100.218 59.262 99.0054 59.0591 98.6013C59.0591 98.3993 59.0591 98.3993 58.8561 98.3993C60.8857 97.9952 63.727 97.389 66.5683 96.1767C69.4096 94.9643 72.4539 93.1458 75.2952 90.7212C78.1366 88.2965 80.572 85.2657 82.1956 81.6287C83.0074 79.8102 83.8192 77.9917 84.2251 76.1732C84.631 74.3547 84.631 72.1321 84.2251 70.3136C83.6163 67.6869 82.8045 65.2623 81.7897 63.2417C81.9927 63.0397 81.9927 62.8376 82.1956 62.4335C82.1956 62.2314 82.1956 62.2315 82.3986 62.0294C82.3986 61.8273 82.3986 61.8273 82.3986 61.8273V61.6253C82.3986 61.6253 82.3986 61.8273 82.6015 61.8273V62.0294C83.0074 62.2315 83.4133 62.6356 83.8192 63.0397C84.2251 63.4438 84.631 63.6458 85.0369 64.0499C85.2399 64.252 85.4428 64.4541 85.8487 64.4541C86.2547 64.6561 86.8635 64.6561 87.2694 64.4541C87.4724 64.4541 87.6753 64.252 87.8783 64.0499C88.0812 63.8479 88.0812 63.6458 88.2842 63.4438C88.4871 63.0397 88.4871 62.8376 88.6901 62.4335C88.893 61.6253 88.6901 61.2212 88.6901 60.615C88.4871 58.3924 87.6753 56.5739 86.8635 55.1595C86.4576 54.5534 86.2547 54.1493 86.0517 53.5431C86.8635 53.9472 87.8783 54.5534 89.096 55.1595C89.7048 55.3616 90.3137 55.7657 91.1255 56.1698C91.7344 56.5739 92.5462 56.776 93.358 57.1801C94.1698 57.5842 95.3875 57.7862 96.4023 57.3821C97.0111 57.1801 97.417 56.978 97.8229 56.3719C98.2288 55.9678 98.4318 55.3616 98.4318 54.7554C98.6347 53.7452 98.4318 52.7349 98.0259 51.9267C97.8229 51.1184 97.417 50.3102 97.0111 49.502C96.1993 47.8856 95.1845 46.6732 94.1698 45.663C92.5462 44.0465 91.1255 43.2383 90.1107 42.8342C91.3285 42.8342 92.9521 42.8342 94.9816 42.6321C96.6052 42.6321 98.4318 42.4301 100.461 42.026C101.476 41.8239 102.491 41.6219 103.506 41.4198C104.52 41.2178 105.535 41.0157 106.753 40.0054C107.159 39.6013 107.565 38.7931 107.768 38.1869C107.971 37.5808 107.768 36.7725 107.565 36.1664C107.362 35.5602 106.956 34.9541 106.55 34.5499C106.144 34.1458 105.738 33.7417 105.129 33.5397C104.114 32.9335 103.303 32.7315 102.288 32.5294C101.476 32.3273 100.461 32.1253 99.6495 31.9232C96.8082 31.5191 94.5757 31.5191 93.358 31.7212C94.5757 30.913 97.62 28.4883 101.476 25.4575C103.506 23.841 105.738 22.0226 108.173 20.2041C108.376 20.002 108.782 19.7999 109.188 19.3958C109.594 18.9917 109.797 18.3856 109.797 17.7794C110 16.7691 109.594 16.163 109.188 15.7589ZM24.5572 50.3102C22.9336 47.6835 22.1218 45.4609 21.513 44.4506C20.9041 42.8342 20.7012 42.026 20.2952 41.4198C20.2952 41.0157 20.0923 40.2075 19.8893 39.1972C19.6864 38.1869 19.4834 36.5705 19.4834 34.1458C19.4834 31.7212 19.6864 28.6904 20.9041 25.2554C21.9189 21.8205 23.7454 18.3856 26.5868 15.3547C28.0074 13.7383 29.4281 12.3239 31.0517 10.9095C32.6753 9.49515 34.2989 8.08077 36.1255 6.86844C39.7786 4.44378 43.8377 2.82734 47.8967 2.22118C51.9558 1.61502 56.0148 2.01913 59.262 2.82734C62.9152 3.63556 65.7565 4.84789 67.786 6.06022C69.8155 7.27255 71.2362 8.48488 72.048 9.09104C73.0628 9.89926 73.6716 10.5054 74.0775 10.9095C74.2805 11.5157 74.6864 12.3239 75.0923 13.5362C75.4982 14.7486 76.513 16.7691 77.3248 19.7999C78.1366 22.8308 79.1513 26.6698 78.9484 31.115C78.7454 35.5602 77.5277 40.6116 74.4834 44.8547C73.0628 47.0773 71.0333 48.6938 68.8008 50.3102C66.5683 51.9267 64.1329 53.341 61.6975 54.7554C59.262 56.1698 56.6237 57.3821 53.9853 58.3924C51.3469 59.4027 48.7085 60.413 46.2731 60.8171C45.8672 60.8171 45.4613 61.0191 45.0554 61.0191C45.0554 61.0191 44.8524 61.0191 44.4465 61.2212C42.62 61.4232 40.5905 61.4232 38.9668 61.2212C36.5314 60.8171 34.5019 59.8068 32.6753 58.5945C28.6163 55.9678 26.1809 52.9369 24.5572 50.3102ZM37.5462 82.0328C37.1403 82.0328 36.3285 82.0328 35.3137 81.2246C34.9078 80.8205 34.2989 80.4164 33.893 79.6082C33.6901 79.2041 33.4871 79.002 33.2842 78.3958C32.8783 77.5876 32.4724 76.5773 32.2694 75.7691C32.0665 75.9712 31.6606 76.3753 31.4576 76.5773C31.2547 76.7794 31.0517 77.1835 30.6458 77.3856C30.4428 77.5876 30.2399 78.1938 30.0369 78.3958C29.834 78.5979 29.834 78.7999 29.631 79.002C29.2251 79.8102 28.8192 80.6184 28.6163 81.4267C28.4133 81.8308 28.2104 82.2349 28.0074 82.4369C27.8045 82.841 27.6015 83.0431 27.3986 83.2452C27.1956 83.4472 27.1956 83.4472 26.9927 83.4472C26.7897 83.4472 26.5868 83.2451 26.3838 83.0431C25.9779 82.639 25.572 81.8308 25.369 81.2246C25.1661 80.6184 24.9631 80.0123 24.7602 79.6082C24.5572 78.5979 24.5572 77.7897 24.5572 77.5876C24.5572 77.3856 24.5572 77.1835 24.5572 77.1835C24.9631 76.5773 24.9631 76.3753 24.7602 76.1732C24.5572 75.9712 24.3543 75.9712 23.5425 76.7794C22.9336 77.1835 21.513 78.7999 19.4834 80.8205C18.4687 81.8308 17.4539 83.0431 16.4392 84.0534C15.8303 84.6595 15.2214 85.0636 14.8155 85.0636C14.2067 85.2657 13.5978 85.0637 13.3949 84.6595C13.1919 84.4575 12.989 83.4472 12.989 82.639C12.989 81.8308 12.989 81.0226 12.989 80.2143C13.1919 78.5979 13.3949 77.1835 13.8008 75.9712C14.6126 73.5465 15.8303 71.728 16.2362 71.3239C16.4392 70.9198 16.4392 70.9198 16.6421 70.7178C16.8451 70.7178 16.8451 70.5157 16.8451 70.5157C16.8451 70.5157 16.8451 70.5157 16.8451 70.3136C17.251 69.9095 17.4539 69.7075 17.251 69.5054C17.251 69.3034 16.8451 69.3034 15.6273 69.7075C14.8155 70.1116 12.3801 71.3239 9.53879 73.3445C8.72698 73.7486 8.11812 74.3547 7.30632 74.9609C6.49451 75.5671 5.88565 76.1732 5.07384 76.3753C4.26204 76.5773 3.45023 76.5773 3.04432 76.1732C2.63842 75.7691 2.43547 74.9609 2.63842 73.9506C2.84137 71.9301 3.65318 69.9095 4.66794 68.2931C5.6827 66.6767 6.90041 65.2623 8.32108 64.6561C9.74174 63.8479 11.1624 63.4438 12.1772 63.4438C13.1919 63.2417 14.0037 63.4438 14.4096 63.4438C15.6273 63.6458 15.8303 63.6458 16.0333 63.2417C16.0333 63.2417 16.0333 63.0397 16.0333 62.8376C16.2362 62.8376 16.4392 62.8376 16.4392 62.6356C16.4392 62.4335 16.4392 62.2314 15.0185 61.4232C14.2067 60.8171 11.5683 59.6047 8.11812 57.7862C7.30632 57.3821 6.29156 56.978 5.2768 56.3719C4.05908 56.5739 3.04432 55.9678 2.43547 55.3616C1.82661 54.5534 1.62366 53.7451 2.02956 53.139C2.23252 52.5328 3.24728 51.9267 4.26204 51.7246C5.2768 51.5225 6.49451 51.5225 7.71222 51.3205C8.92993 51.3205 9.94469 51.3205 11.1624 51.3205C13.3949 51.5225 15.4244 51.9267 17.251 52.3308C20.9041 53.341 23.5425 54.5534 24.3543 54.9575C25.775 55.5636 25.9779 55.5636 26.1809 55.1595C27.6015 56.776 29.2251 58.3924 31.4576 59.8068C33.4871 61.2212 35.7196 62.2314 38.5609 62.6356C39.7786 62.8376 41.1993 62.8376 42.62 62.8376C41.8082 64.0499 40.5905 66.0705 39.7786 68.6972C38.5609 72.3342 37.9521 76.9815 38.7639 81.8308C38.358 82.0328 38.155 82.0328 37.5462 82.0328ZM57.8414 98.6013C57.8414 99.0054 57.6384 100.016 57.4355 101.43C57.2325 102.036 57.2325 102.844 57.0296 103.653C56.8266 104.461 56.6237 105.269 56.4207 105.875C56.2178 106.077 56.0148 106.481 56.0148 106.481C55.8119 106.481 55.8119 106.481 55.6089 106.481C55.4059 106.481 55.203 106.279 55 106.077C54.7971 105.875 54.5941 105.673 54.5941 105.269C53.9853 104.259 53.9853 103.451 53.7823 103.047V102.844C53.9853 102.036 53.7823 101.834 53.5794 101.632C53.3764 101.632 53.1735 101.632 52.7676 102.44C52.3617 102.844 51.7528 104.461 50.7381 106.279C50.1292 107.29 49.7233 108.3 48.9115 109.31C48.5056 109.916 48.3026 110.32 47.8967 110.927C47.4908 111.533 47.2879 111.937 46.882 112.139C46.679 112.139 46.4761 112.139 46.4761 112.139C46.4761 112.139 46.4761 112.139 46.2731 111.937C46.0702 111.735 45.8672 110.927 45.8672 110.32C45.6642 109.108 45.8672 108.098 45.8672 106.886C46.0702 105.875 46.2731 104.865 46.4761 104.259C46.679 103.451 46.679 103.047 46.882 102.844C47.0849 102.238 47.0849 102.238 47.0849 101.834C47.0849 101.834 47.0849 101.834 47.0849 101.632C47.0849 101.43 47.0849 101.43 46.882 101.228C46.679 101.026 46.4761 101.228 45.4613 102.44C44.8524 103.249 43.4318 105.471 40.9964 108.098C39.7786 109.512 38.5609 110.927 36.9373 112.341C36.1255 113.149 35.3137 113.755 34.5019 114.362C34.096 114.766 33.6901 115.17 33.2842 115.372C32.8783 115.574 32.4724 115.776 32.4724 115.574C32.4724 115.574 32.2694 115.574 32.2694 115.17C32.2694 114.766 32.2694 114.16 32.4724 113.755C32.6753 112.745 32.8783 111.735 33.0812 110.725C33.6901 108.906 34.5019 107.088 35.3137 105.673C37.1403 102.642 38.7639 100.622 39.3727 100.016C39.9816 99.0054 40.1845 98.6013 39.9816 98.6013C40.1845 98.3993 40.1845 98.3993 40.1845 98.1972C40.1845 97.9951 39.7786 97.7931 37.7491 97.9952C36.5314 98.1972 32.8783 98.6013 28.0074 99.0054C25.572 99.2075 22.9336 99.2075 19.8893 99.2075C18.4687 99.2075 17.048 99.0054 16.4392 98.3993C16.4392 98.1972 16.2362 97.7931 16.2362 97.389C16.2362 96.9849 16.6421 96.3787 17.048 95.9746C18.8746 93.9541 21.7159 92.7417 24.3543 92.1356C26.9927 91.5294 29.834 91.7315 32.0665 91.9335C36.9373 92.3376 40.3875 93.3479 41.8082 93.5499C42.62 93.752 43.0259 93.752 43.4318 93.752C43.6347 94.1561 43.8377 94.3582 44.2436 94.7623C45.4613 96.1767 46.882 97.389 48.0997 97.9952C49.3174 98.6013 50.3321 99.0054 50.7381 99.0054C51.5499 99.2075 51.9558 99.2075 52.1587 99.0054C52.3617 99.0054 52.3617 98.8034 52.5646 98.8034C52.9705 98.8034 53.5794 98.8034 54.3912 98.8034C55.203 98.8034 56.4207 98.6013 57.8414 98.6013ZM79.1513 61.8273C80.7749 64.252 81.9927 67.4849 82.6015 70.7178C83.2104 73.9506 82.1956 77.5876 80.572 80.8205C78.9484 84.0534 76.7159 86.8821 74.0775 89.3068C71.4392 91.5294 68.5978 93.3479 65.9594 94.5602C60.4797 96.9849 56.0148 97.389 54.3912 97.591C53.1735 97.7931 52.3617 97.7931 51.9558 97.9952C51.7528 97.9952 51.5499 97.7931 51.144 97.591C50.3321 97.1869 47.6938 96.1767 45.4613 93.3479C44.8524 92.7417 44.2436 91.9335 43.8377 91.1253C43.6347 90.7212 43.2288 90.3171 43.0259 89.913C42.8229 89.5089 42.62 88.9027 42.417 88.4986C41.6052 86.478 40.7934 84.4575 40.3875 82.2349C39.5757 77.7897 40.1845 73.1424 41.1993 69.7075C42.2141 66.4746 43.6347 64.252 44.0406 63.2417C44.8524 63.2417 45.6642 63.0397 46.4761 62.8376C49.1144 62.2315 51.9558 61.4232 54.5941 60.2109C57.2325 59.2006 59.8709 57.9883 62.5093 56.5739C64.9447 55.3616 67.1772 53.7451 69.4096 52.3308C69.8155 52.5328 70.2214 52.9369 70.8303 53.341C72.251 54.1493 75.9041 56.776 79.1513 61.8273ZM108.173 17.5773C108.173 17.5773 107.768 18.1835 107.159 18.5876C104.723 20.4061 102.491 22.2246 100.461 23.841C96.4023 27.0739 93.5609 29.4986 92.5462 30.5089C91.1255 31.9232 90.9226 32.3273 91.1255 32.5294C91.1255 32.5294 91.3285 32.7315 91.7344 32.5294C91.9373 32.7315 92.3432 32.7315 93.155 32.7315C93.9668 32.7315 96.4023 32.7315 99.6495 33.3376C100.461 33.5397 101.273 33.7417 102.085 33.9438C102.897 34.1458 103.709 34.5499 104.52 34.9541C105.332 35.3582 105.738 35.9643 106.144 36.5705C106.347 37.3787 106.347 37.9849 105.738 38.389C105.332 38.7931 104.317 39.1972 103.303 39.3993C102.288 39.6013 101.476 39.8034 100.461 40.0054C98.6347 40.4095 96.8082 40.6116 95.1845 40.6116C91.9373 40.8136 89.5019 41.0157 88.6901 41.2178C87.4724 41.4198 87.2694 41.6219 87.2694 41.8239C87.2694 42.026 87.4724 42.228 88.2842 42.228C88.2842 42.4301 88.2842 42.6321 89.2989 43.2383C89.9078 43.6424 91.7344 44.4506 93.5609 46.4712C94.3727 47.4815 95.3875 48.6938 95.9963 49.9061C96.4023 50.5123 96.6052 51.3205 96.8082 52.1287C97.0111 52.9369 97.2141 53.5431 97.0111 54.1493C96.8082 54.7554 96.6052 55.1595 95.9963 55.1595C95.3875 55.3616 94.7786 55.1595 94.1698 54.9575C93.5609 54.7554 92.7491 54.3513 92.1403 53.9472C91.5314 53.5431 90.7196 53.341 90.1107 53.139C87.6753 51.9267 85.6458 51.1184 85.0369 50.9164C84.0222 50.7143 83.6163 50.7143 83.6163 50.9164C83.6163 51.1184 83.6163 51.3205 84.4281 51.9267C84.4281 52.1287 84.4281 52.3308 84.631 52.5328C84.834 52.9369 85.2399 53.9472 85.8487 55.3616C86.4576 56.776 87.0665 58.3924 87.2694 60.2109C87.2694 60.615 87.2694 61.2212 87.2694 61.4232C87.2694 61.6253 87.0665 62.0294 87.0665 62.0294C87.0665 62.0294 86.6606 61.8273 86.4576 61.6253C86.0517 61.4232 85.6458 61.0191 85.2399 60.8171C84.834 60.413 84.4281 60.2109 84.0222 59.8068C83.2104 59.2006 82.6015 58.3924 81.9927 57.5842C81.3838 56.776 80.572 56.1698 79.9631 55.3616C79.7602 55.3616 79.9631 55.3616 78.1366 53.5431C78.9484 55.1595 79.7602 56.978 80.369 58.3924C80.572 58.7965 80.7749 59.2006 80.7749 59.6047C80.7749 59.8068 80.7749 60.0088 80.7749 60.2109C80.7749 60.413 80.7749 60.615 80.7749 60.615V60.8171C80.572 60.615 80.572 60.413 80.369 60.2109C76.9189 54.9575 72.8598 52.3308 71.4392 51.5225C71.0332 51.3205 70.6273 51.1184 70.2214 50.9164C72.4539 49.2999 74.4834 47.4814 75.9041 45.2588C78.5425 41.4198 79.9631 37.1767 80.369 33.1356C80.572 32.9335 80.572 32.7315 80.7749 32.5294C81.5868 31.5191 84.0222 28.4883 87.8783 25.0534C89.7048 23.4369 92.1403 21.6184 94.5757 20.2041C97.2141 18.5876 99.8524 17.1732 102.897 16.5671C103.709 16.365 104.317 16.365 105.129 16.163C105.535 16.163 105.941 16.163 106.144 16.163H106.753C106.956 16.163 107.159 16.163 107.159 16.163C107.362 16.163 107.768 16.365 107.971 16.365C108.173 17.3753 108.173 17.3753 108.173 17.5773Z" fill="#145A82"/>
<path d="M57.8413 98.3983C57.8413 98.6003 57.8413 98.6003 57.8413 98.3983C57.6384 99.0044 57.6384 100.015 57.4354 101.429C57.4354 101.833 57.2325 102.035 57.2325 102.439C57.2325 102.843 57.0295 103.248 57.0295 103.652C56.8266 104.46 56.6236 105.268 56.4207 105.874C56.2177 106.076 56.0148 106.48 56.0148 106.48C55.8118 106.48 55.8118 106.48 55.6088 106.48C55.4059 106.48 55.2029 106.278 55 106.076C54.797 105.874 54.5941 105.672 54.5941 105.268C53.9852 104.258 53.9852 103.45 53.7823 103.046V102.843C53.9852 102.035 53.7823 101.833 53.5793 101.631C53.3764 101.631 53.1734 101.631 52.5646 102.439C52.3616 102.843 51.5498 104.46 50.535 106.278C49.9262 107.289 49.3173 108.299 48.7085 109.309C48.3026 109.915 48.0996 110.32 47.6937 110.926C47.2878 111.532 47.0849 111.936 46.679 112.138C46.476 112.138 46.2731 112.138 46.2731 112.138C46.2731 112.138 46.2731 112.138 46.0701 111.936C45.8672 111.734 45.6642 110.926 45.6642 110.522C45.4612 109.309 45.6642 108.299 45.6642 107.087C45.8672 106.076 46.0701 105.066 46.0701 104.46C46.2731 103.652 46.2731 103.248 46.476 103.046C46.679 102.439 46.679 102.439 46.679 102.035V101.833C46.679 101.631 46.679 101.631 46.476 101.429C46.2731 101.227 46.0701 101.429 45.0553 102.641C44.4465 103.45 43.0258 105.672 40.5904 108.299C39.3727 109.713 38.155 111.128 36.5314 112.542C35.7196 113.35 34.9077 113.956 34.0959 114.563C33.69 114.967 33.2841 115.169 32.8782 115.573C32.4723 115.775 32.0664 115.775 32.0664 115.775C32.0664 115.775 31.8635 115.775 31.8635 115.371C31.8635 114.967 31.8635 114.361 32.0664 113.956C32.2694 112.946 32.4723 111.936 32.6753 110.926C33.2841 109.107 34.0959 107.289 34.9077 105.874C36.7343 102.843 38.5609 100.823 38.9668 100.217C39.5756 99.2065 39.7786 98.8024 39.5756 98.6003C39.7786 98.3983 39.7786 98.3983 39.7786 98.1962C39.7786 97.9942 39.3727 97.7921 37.3432 97.9942C36.1255 98.1962 32.4723 98.6003 27.6015 99.0044C25.166 99.2065 22.5277 99.2065 19.4834 99.2065C18.0627 99.2065 16.6421 99.2065 16.0332 98.3983C16.4391 98.1962 16.2362 97.7921 16.2362 97.388C16.2362 96.9839 16.6421 96.3777 17.048 95.9736C18.8745 93.9531 21.7159 92.7407 24.3542 92.1346C26.7897 91.7305 29.2251 91.7305 31.2546 91.7305C31.4576 91.7305 31.8635 91.7305 32.0664 91.7305C36.9373 92.1346 40.3874 92.9428 41.8081 93.3469C42.6199 93.549 43.0258 93.549 43.4317 93.549C43.6347 93.9531 44.0406 94.1551 44.2435 94.5592C45.4612 95.9736 46.8819 97.1859 48.0996 97.7921C49.3173 98.3983 50.3321 98.8024 50.738 98.8024C51.5498 99.0044 51.9557 99.0044 52.1587 98.8024C52.3616 98.8024 52.3616 98.6003 52.5646 98.6003C52.9705 98.6003 53.5793 98.6003 54.3911 98.6003C55.2029 98.8024 56.4207 98.6003 57.8413 98.3983Z" fill="#84C1D4"/>
<path d="M42.417 63.2415C41.6052 64.4539 40.3875 66.4744 39.5757 69.1011C38.7639 71.1217 38.3579 73.5463 38.155 76.1731C37.952 78.1936 38.155 80.2141 38.3579 82.2347C38.155 82.2347 37.952 82.2347 37.5461 82.2347C37.1402 82.2347 36.3284 82.2347 35.3137 81.4265C34.9078 81.0224 34.2989 80.6183 33.893 79.81C33.6901 79.4059 33.4871 79.2039 33.2841 78.5977C32.8782 77.7895 32.6753 76.7792 32.2694 75.971C32.0664 76.173 31.6605 76.5772 31.4576 76.7792C31.2546 76.9813 31.0517 77.3854 30.6458 77.5874C30.4428 77.7895 30.2399 78.3957 30.0369 78.5977C29.834 78.7998 29.834 79.0018 29.631 79.2039C29.2251 80.0121 28.8192 81.0224 28.6163 81.6285C28.4133 82.0326 28.2103 82.4368 28.0074 82.6388C27.8044 83.0429 27.6015 83.245 27.3985 83.447C27.1956 83.6491 27.1956 83.6491 26.9926 83.6491C26.7897 83.6491 26.5867 83.447 26.3838 83.245C25.9779 82.8409 25.572 82.0326 25.369 81.4265C25.1661 80.8203 24.9631 80.2141 24.7602 79.81C24.5572 78.7998 24.5572 78.1936 24.5572 77.7895C24.5572 77.5874 24.5572 77.3854 24.5572 77.3854C24.9631 76.7792 24.9631 76.5772 24.7602 76.3751C24.5572 76.173 24.3543 76.173 23.5424 76.9813C22.9336 77.3854 21.5129 79.0018 19.4834 81.0224C18.4686 82.0326 17.4539 83.245 16.4391 84.2552C15.8303 84.6594 15.2214 85.2655 14.8155 85.2655C14.2067 85.4676 13.5978 85.2655 13.3948 84.8614C13.1919 84.6594 12.9889 83.6491 12.9889 82.8409C12.9889 82.0326 12.9889 81.2244 12.9889 80.4162C13.1919 78.7998 13.3948 77.3854 13.8008 76.1731C14.6126 73.7484 15.8303 71.9299 16.2362 71.5258C16.4391 71.1217 16.4391 71.1217 16.6421 70.9196C16.845 70.9196 16.845 70.7176 16.845 70.7176C17.2509 70.3135 17.4539 70.1114 17.2509 69.9094C17.2509 69.7073 16.845 69.7073 15.6273 70.1114C14.8155 70.5155 12.3801 71.7278 9.53876 73.7484C8.9299 74.1525 8.1181 74.7587 7.30629 75.3648C6.49448 75.971 5.88562 76.5772 5.07382 76.7792C4.26201 76.9813 3.4502 76.9813 3.04429 76.5772C2.63839 76.1731 2.43544 75.3648 2.63839 74.3546C2.84134 72.334 3.65315 70.3135 4.66791 68.697C5.68267 67.0806 6.90038 65.6662 8.32105 65.06C9.74171 64.2518 11.1624 63.8477 12.1771 63.8477C13.1919 63.6457 14.0037 63.8477 14.6126 63.8477C15.8303 64.0498 16.0332 64.0498 16.2362 63.6457C16.2362 63.6457 16.2362 63.4436 16.0332 63.2415C16.2362 63.2415 16.4391 63.2415 16.4391 63.0395C16.4391 62.8374 16.4391 62.6354 15.0185 61.8272C14.2067 61.221 11.5683 60.0087 8.1181 58.1902C7.30629 57.7861 6.29153 57.382 5.47972 56.7758C4.05906 56.5737 3.04429 55.9676 2.43544 55.3614C1.82658 54.5532 1.62363 53.745 2.02953 53.1388C2.23249 52.5326 3.24725 51.9265 4.26201 51.7244C5.27677 51.5224 6.49448 51.5224 7.71219 51.3203C8.9299 51.3203 9.94466 51.3203 11.1624 51.3203C13.3948 51.5224 15.4244 51.9265 17.2509 52.3306C19.0775 52.7347 20.7011 53.3409 22.1218 53.947C23.3395 54.3511 24.1513 54.7552 24.5572 54.9573C25.9779 55.5635 26.1808 55.5635 26.3838 55.1594C27.8044 56.7758 29.4281 58.3922 31.6605 59.8066C33.6901 61.221 35.9225 62.2313 38.7639 62.6354C39.7786 63.2415 41.1993 63.2415 42.417 63.2415Z" fill="#84C1D4"/>
<path d="M79.1516 61.8258C80.7752 64.2504 81.9929 67.4833 82.6018 70.7162C83.2106 73.3429 82.6018 75.9696 81.587 78.5963C81.1811 79.4045 80.9781 80.2128 80.5722 81.021C78.9486 84.2538 76.7161 87.2847 74.0778 89.5073C71.4394 91.9319 68.5981 93.5484 65.9597 94.7607C60.8859 96.9833 56.6239 97.3874 54.7973 97.7915C54.5944 97.7915 54.5944 97.7915 54.3914 97.7915C53.1737 97.9936 52.3619 97.9936 51.956 98.1956C51.753 98.1956 51.5501 97.9936 51.1442 97.7915C50.3324 97.3874 47.694 96.3771 45.4615 93.5484C44.8527 92.9422 44.2438 92.134 43.8379 91.3258C43.635 90.9217 43.2291 90.5175 43.0261 90.1134C42.8232 89.7093 42.6202 89.1032 42.2143 88.6991C41.4025 86.6785 40.5907 84.658 40.1848 82.4354C39.373 77.9902 39.9818 73.3429 40.9966 69.908C42.0114 66.6751 43.432 64.4525 43.8379 63.4422C44.6497 63.4422 45.4615 63.2402 46.2733 63.0381C48.9117 62.4319 51.753 61.6237 54.3914 60.4114C57.0298 59.4011 59.6682 58.1888 62.3066 56.7744C64.742 55.5621 66.9744 53.9456 69.2069 52.5312C69.6128 52.7333 70.0187 53.1374 70.6276 53.5415C72.2512 53.9456 75.9043 56.7744 79.1516 61.8258Z" fill="#84C1D4"/>
<path d="M47.4908 41.4194C47.4908 41.4194 47.4908 41.6214 47.2879 41.6214C47.0849 41.8235 46.882 42.0255 46.679 42.2276C46.2731 42.6317 45.8672 43.2379 45.4613 43.642C44.6495 44.4502 43.6347 45.4605 42.8229 46.0666C40.9963 47.6831 39.1698 48.8954 37.5462 50.1077C35.9225 51.118 34.2989 52.1283 33.0812 52.5324C32.8783 52.7344 32.4724 52.7344 32.2694 52.7344C32.0665 52.7344 32.0665 52.7344 31.8635 52.7344H31.6606C31.4576 52.7344 31.2546 52.5324 31.0517 52.3303C30.6458 51.9262 30.2399 51.5221 30.2399 51.32C30.0369 51.118 30.0369 51.118 29.834 51.118C29.834 51.118 30.0369 51.118 30.0369 50.9159C30.2399 50.7139 30.2399 50.3098 30.6458 49.5016C30.8487 49.0974 31.2546 48.0872 32.2694 47.0769C33.0812 46.0666 34.5019 44.8543 36.1255 43.642C37.7491 42.4296 39.5757 41.2173 41.8082 40.6111C42.8229 40.207 44.0406 40.207 45.2583 40.207C45.8672 40.207 46.2731 40.4091 46.882 40.6111C47.0849 41.2173 47.2879 41.4194 47.4908 41.4194Z" fill="#DE6826"/>
<path d="M47.4908 44.25C47.4908 44.8562 47.2879 45.8664 46.882 46.8767C46.2731 48.6952 44.8525 50.9178 42.823 52.5342C41.8082 53.3425 40.7934 53.9486 39.7787 54.3527C38.7639 54.7568 37.7492 54.7569 36.7344 54.7569C35.5167 54.5548 34.5019 54.3527 33.8931 54.1507C35.3137 53.5445 36.7344 52.7363 38.561 51.726C40.3875 50.7158 42.2141 49.3014 44.2436 47.6849C45.2584 46.8767 46.0702 46.0685 47.0849 45.0582C47.0849 44.6541 47.2879 44.4521 47.4908 44.25Z" fill="#DE6826"/>
<path d="M108.174 17.3736C108.377 17.5756 108.377 17.5756 108.377 17.5756C108.377 17.5756 107.971 18.1818 107.362 18.5859C104.926 20.4044 102.694 22.2229 100.664 23.8393C96.6054 27.0722 93.7641 29.4968 92.7494 30.5071C91.3287 31.9215 91.1257 32.3256 91.3287 32.5277C91.3287 32.5277 91.5316 32.5277 91.9375 32.5277C92.1405 32.7297 92.5464 32.7297 93.3582 32.7297C94.17 32.7297 96.6054 32.7297 99.6497 33.3359C100.462 33.5379 101.273 33.74 102.085 33.942C102.897 34.1441 103.709 34.5482 104.521 34.9523C105.332 35.3564 105.738 35.9626 106.144 36.5688C106.347 37.377 106.347 37.9831 105.738 38.3873C105.332 38.7914 104.318 39.1955 103.303 39.3975C102.288 39.5996 101.476 39.8016 100.462 40.0037C98.635 40.4078 96.8084 40.6099 95.1848 40.6099C91.9376 40.8119 89.5021 41.014 88.6903 41.216C87.4726 41.4181 87.2697 41.6201 87.2697 41.8222C87.2697 42.0242 87.4726 42.2263 88.2844 42.2263C88.2844 42.4283 88.2844 42.6304 89.2992 43.2366C89.908 43.6407 91.7346 44.4489 93.5612 46.4694C94.373 47.4797 95.3877 48.692 95.9966 49.9044C96.4025 50.5105 96.6054 51.3188 96.8084 52.127C97.0114 52.9352 97.2143 53.5414 97.0113 54.1475C96.8084 54.7537 96.6054 55.1578 95.9966 55.3599C95.3877 55.5619 94.7789 55.3599 94.17 55.1578C93.5612 54.9557 92.7494 54.5516 92.1405 54.1475C91.5316 53.7434 90.7198 53.5414 90.111 53.3393C87.6756 52.127 85.646 51.3188 85.0372 51.1167C84.0224 50.9146 83.8195 50.9146 83.6165 51.1167C83.6165 51.3188 83.6165 51.5208 84.4283 52.127C84.4283 52.329 84.4283 52.5311 84.6313 52.7331C84.8342 53.1373 85.2401 54.1475 85.849 55.5619C86.4578 56.9763 87.0667 58.5927 87.2697 60.4112C87.2697 60.8153 87.2697 61.4215 87.2697 61.6236C87.2697 61.8256 87.0667 62.2297 87.0667 62.2297C87.0667 62.2297 86.6608 62.0277 86.4578 61.8256C86.0519 61.6236 85.646 61.2194 85.2401 61.0174C84.8342 60.6133 84.4283 60.4112 84.0224 60.0071C83.2106 59.401 82.6018 58.5927 81.9929 57.7845C81.384 56.9763 80.5722 56.3701 79.9634 55.5619C79.7604 55.5619 79.9634 55.5619 78.1368 53.7434C78.9486 55.3599 79.7604 57.1783 80.3693 58.5927C80.5722 58.9968 80.7752 59.401 80.7752 59.8051C80.7752 60.0071 80.7752 60.2092 80.7752 60.4112C80.7752 60.6133 80.7752 60.8153 80.7752 60.8153V61.0174C80.5722 60.8153 80.5722 60.6133 80.3693 60.4112C79.1516 58.3907 77.7309 56.7742 76.5132 55.5619C74.2807 53.3393 72.4542 52.127 71.4394 51.7229C71.0335 51.5208 70.6276 51.3188 70.2217 51.1167C72.4542 49.5003 74.4837 47.6818 75.9043 45.4592C78.5427 41.6201 79.9634 37.377 80.3693 33.3359L80.5722 33.1338C80.5722 33.1338 80.7752 32.9318 80.7752 32.7297C81.587 31.7194 84.0224 28.6886 87.8785 25.2537C89.7051 23.6373 92.1405 21.8188 94.5759 20.4044C97.2143 18.7879 99.8527 17.3736 102.897 16.7674C103.709 16.5653 104.318 16.5653 105.129 16.3633C105.535 16.3633 105.941 16.3633 106.144 16.3633H106.753C106.956 16.3633 107.159 16.3633 107.159 16.3633C107.565 17.1715 107.971 17.1715 108.174 17.3736Z" fill="#84C1D4"/>
<path d="M27.8044 40.6127C28.2103 41.0168 28.4133 41.6229 28.4133 42.027C28.6163 42.4312 28.6163 43.0373 28.6163 43.6435C28.6163 44.2496 28.6163 45.0579 28.0074 45.664C27.6015 46.2702 26.7897 46.4722 26.1808 46.4722C25.572 46.4722 24.9631 46.2702 24.5572 46.0681C24.1513 45.8661 23.7454 45.2599 23.5425 44.8558C23.1365 44.0476 22.9336 43.2394 22.9336 42.6332C22.9336 42.027 22.9336 41.6229 22.9336 41.4209C22.9336 41.2188 23.1365 41.0168 23.1365 40.8147C23.3395 40.8147 23.3395 40.8147 23.3395 40.8147C23.5424 40.4106 23.7454 40.0065 23.9484 39.8044C24.3543 39.4003 25.1661 38.9962 25.7749 39.1983C26.7897 39.6024 27.3985 40.2086 27.8044 40.6127Z" fill="#145A82"/>
<path d="M55.8119 30.5097C56.2178 31.1158 56.2178 31.722 56.4208 32.1261C56.4208 32.7323 56.6237 33.1364 56.6237 33.7425C56.6237 34.9549 56.0149 36.5713 54.3913 36.9754C53.5795 37.1775 52.9706 36.7734 52.3617 36.3692C51.9558 35.9651 51.5499 35.561 51.347 35.1569C50.5352 33.3384 50.9411 31.924 51.144 31.5199C51.144 31.5199 51.144 31.5199 51.144 31.3179C51.144 30.7117 51.5499 29.9035 52.3617 29.2973C52.7676 28.8932 53.7824 28.6912 54.3913 29.0953C55.0001 29.2973 55.609 29.9035 55.8119 30.5097Z" fill="#145A82"/>
<path d="M77.7306 79.2053C77.7306 79.4073 77.5277 79.6094 77.3247 79.6094C77.1218 79.8114 76.9188 79.8114 76.7158 79.8114C76.5129 79.8114 75.904 79.2053 75.0922 78.5991C74.2804 77.9929 73.4686 77.5888 73.4686 77.3868C73.2657 77.1847 73.4686 76.9827 73.4686 76.7806C73.4686 76.5785 73.6716 76.3765 73.8745 76.1744C74.0775 75.9724 75.2952 76.1744 76.3099 76.9827C77.1218 77.9929 77.7306 79.0032 77.7306 79.2053Z" fill="#145A82"/>
<path d="M78.1368 74.5582C78.7456 75.1644 79.1515 75.7705 79.1515 75.9726C79.1515 76.1747 78.9486 76.3767 78.7456 76.3767C78.5427 76.7808 78.3397 76.7808 78.1368 76.7808C77.9338 76.7808 77.325 76.3767 76.9191 75.9726C76.5132 75.5685 75.9043 75.1644 75.9043 74.9623C75.9043 74.7603 75.9043 74.5582 76.1072 74.3562C76.1072 74.1541 76.3102 73.9521 76.5132 73.75C76.7161 73.75 77.325 74.1541 78.1368 74.5582Z" fill="#145A82"/>
<path d="M79.9631 72.7397C80.572 73.3459 80.7749 74.1541 80.572 74.5582C80.572 74.7602 80.369 74.7602 80.1661 74.7602C79.9631 74.7602 79.7602 74.9623 79.5572 74.9623C79.3543 74.9623 78.9483 74.5582 78.7454 74.1541C78.3395 73.75 77.9336 73.3459 77.9336 73.1438C77.9336 72.9417 77.9336 72.7397 78.1365 72.5376C78.3395 72.3356 78.3395 72.1335 78.5424 71.9315C78.5424 71.7294 79.5572 72.1335 79.9631 72.7397Z" fill="#145A82"/>
<path d="M60.0736 87.288C60.2766 87.4901 60.4795 88.7024 60.8854 89.7127C61.0884 89.9147 61.0884 90.3188 61.2914 90.5209C61.2914 90.7229 61.4943 90.925 61.6973 90.925C61.9002 91.127 61.9002 91.127 62.1032 91.3291C62.1032 91.5311 62.3061 91.5311 62.5091 91.7332C62.712 91.9353 62.712 92.1373 62.5091 92.3394C62.3061 92.5414 61.4943 92.5414 60.8854 92.1373C60.6825 91.9353 60.2766 91.7332 60.0736 91.3291C59.8707 90.925 59.6677 90.7229 59.4648 90.3188C58.8559 89.1065 58.8559 87.4901 59.0589 87.288C59.2618 87.0859 59.4648 87.0859 59.6677 87.0859C59.6677 87.0859 59.8707 87.0859 60.0736 87.288Z" fill="#145A82"/>
<path d="M62.9153 86.8828C63.1182 87.0848 63.3212 87.691 63.7271 88.2972C64.133 88.9033 64.7418 89.3074 64.7418 89.5095C64.7418 89.7115 64.7418 89.9136 64.7418 90.1156C64.7418 90.3177 64.5389 90.5198 64.3359 90.7218C64.133 90.9239 62.7123 90.5198 62.1035 89.5095C61.4946 88.4992 61.4946 87.2869 61.6976 87.0848C61.9005 86.8828 62.1035 86.8828 62.3064 86.8828C62.7123 86.6807 62.9153 86.8828 62.9153 86.8828Z" fill="#145A82"/>
<path d="M66.5684 87.0856C66.7714 87.4897 66.9743 87.8938 66.9743 88.0958C66.9743 88.2979 66.7714 88.4999 66.7714 88.702C66.5684 88.9041 66.5684 89.1061 66.3655 89.1061C66.1625 89.3082 65.3507 88.702 64.9448 88.0958C64.5389 87.2876 64.7418 86.4794 64.9448 86.4794C65.1478 86.2773 65.3507 86.2773 65.5537 86.2773C65.7566 86.2773 65.9596 86.2773 66.1625 86.2773C66.3655 86.2773 66.3655 86.6814 66.5684 87.0856Z" fill="#145A82"/>
<path d="M85.4428 33.5387C86.0516 34.1449 86.4575 34.9531 86.4575 35.9633C86.4575 36.7716 86.2546 37.7818 86.0516 38.1859C85.8487 38.7921 85.4428 39.1962 85.4428 39.1962C85.2398 39.3983 85.0369 39.3983 84.8339 39.1962C84.631 39.1962 84.428 38.9942 84.428 38.7921C84.2251 38.388 84.8339 37.1757 84.8339 35.9633C84.8339 35.5592 84.631 34.9531 84.428 34.549C84.2251 34.1449 84.0221 34.1448 83.8192 33.9428C83.6162 33.7407 83.6162 33.5387 83.6162 33.3366C83.6162 33.1346 83.6162 32.9325 84.0221 32.7305C84.2251 32.9325 84.8339 33.1346 85.4428 33.5387Z" fill="#145A82"/>
<path d="M84.428 44.0469C84.6309 44.2489 85.0368 45.4613 84.6309 46.4715C84.428 47.6839 83.6161 48.4921 83.4132 48.6941C83.2102 48.6941 83.0073 48.6941 82.8043 48.4921C82.6014 48.29 82.3984 48.29 82.3984 47.8859C82.3984 47.6839 82.6014 46.8756 82.8043 46.0674C83.0073 45.2592 83.0073 44.451 83.2102 44.2489C83.4132 44.0469 83.6162 44.0469 83.8191 44.0469C84.0221 44.0469 84.225 44.0469 84.428 44.0469Z" fill="#145A82"/>
<path d="M20.9043 57.7859C20.9043 57.9879 20.7014 58.19 20.7014 58.392C20.7014 58.392 20.7014 58.392 20.7014 58.5941C20.7014 58.5941 20.4984 58.7961 20.4984 58.9982C20.4984 59.2002 20.4984 59.2002 20.4984 59.4023C20.4984 59.6043 20.4984 59.8064 20.4984 59.8064C20.4984 60.2105 20.7014 60.4126 20.9043 60.8167C21.3103 61.4228 21.9191 61.827 22.325 62.029C22.9339 62.2311 23.3398 62.2311 23.5427 62.4331C23.7457 62.6352 23.9486 62.6352 23.9486 62.8372C23.9486 63.0393 23.9486 63.2413 23.7457 63.4434C23.5427 63.6454 22.7309 63.8475 21.9191 63.6454C20.9043 63.4434 19.8896 62.8372 19.2807 61.6249C19.0778 61.0187 18.8748 60.6146 18.6719 60.0085C18.6719 59.8064 18.6719 59.4023 18.6719 59.2002C18.6719 58.9982 18.6719 58.5941 18.8748 58.392C19.0778 57.9879 19.4837 57.5838 19.6866 57.3817C20.0925 57.1797 20.4984 57.1797 20.4984 57.1797C21.1073 57.3817 20.9043 57.5838 20.9043 57.7859Z" fill="#145A82"/>
<path d="M24.9631 64.8583C25.1661 65.0604 25.369 65.2624 25.369 65.4645C25.369 65.8686 24.7602 67.0809 25.1661 67.8891C25.369 68.2932 25.7749 68.6973 26.1808 68.6973C26.5867 68.8994 26.7897 68.8994 26.9926 68.8994C27.1956 68.8994 27.3985 69.1015 27.3985 69.3035C27.6015 69.5056 27.6015 69.7076 27.3985 70.1117C27.1956 70.3138 26.5867 70.7179 25.7749 70.5158C24.9631 70.3138 23.9484 69.7076 23.5425 68.6973C23.1366 67.6871 23.3395 66.6768 23.5425 65.8686C23.7454 65.2624 24.1513 64.8583 24.3543 64.6563C24.5572 64.6562 24.7602 64.6562 24.9631 64.8583Z" fill="#145A82"/>
<path d="M33.0812 70.7166C33.2842 70.9186 33.2842 71.1207 33.2842 71.1207C33.2842 71.3227 33.4871 71.5248 33.4871 71.7268C33.4871 71.9289 32.6753 72.333 31.8635 72.131C31.0517 71.9289 30.4428 71.3227 30.6458 71.1207C30.6458 70.9186 30.8487 70.7166 30.8487 70.7166C31.0517 70.5145 31.0517 70.3125 31.2546 70.3125C31.4576 70.1104 31.8635 70.3125 32.0664 70.3125C32.4723 70.5145 32.8783 70.5145 33.0812 70.7166Z" fill="#145A82"/>
<path d="M56.4205 74.555C56.4205 74.7571 56.2175 75.5653 55.6087 76.3735C55.2028 76.7776 54.7969 77.1817 54.188 77.5858C53.5792 77.7879 52.7674 77.9899 52.1585 77.7879C51.5497 77.5858 50.7378 77.3838 50.3319 76.9797C49.7231 76.5756 49.3172 76.1714 49.1142 75.7673C48.5054 74.9591 48.5054 74.1509 48.5054 73.7468C48.5054 73.3427 48.7083 73.3427 48.9113 73.1406C49.1142 73.1406 49.3172 73.1406 49.7231 73.3427C49.926 73.5447 50.129 74.1509 50.5349 74.555C50.9408 75.1612 51.7526 75.5653 52.5644 75.7673C53.3762 75.9694 54.188 75.5653 54.5939 75.1612C55.2028 74.7571 55.4057 74.1509 55.6087 73.9488C55.8116 73.7468 56.0146 73.7468 56.2176 73.7468C56.2176 74.1509 56.4205 74.1509 56.4205 74.555Z" fill="#145A82"/>
<path d="M63.524 70.7166C63.524 70.9187 63.524 71.5248 63.1181 72.131C62.7122 72.7372 62.1033 73.3433 61.2915 73.5454C60.4797 73.7474 59.4649 73.7474 58.8561 73.3433C58.2472 73.1413 57.8413 72.7372 57.8413 72.5351C57.8413 72.3331 57.8413 72.131 58.0443 71.9289C58.2472 71.7269 58.4502 71.7269 58.6531 71.5248C58.8561 71.5248 59.059 71.7269 59.4649 71.7269C59.8708 71.7269 60.2767 71.9289 60.6826 71.7269C61.0885 71.5248 61.4944 71.3228 61.6974 71.1207C61.9003 70.9187 62.1033 70.5146 62.3063 70.5146C62.5092 70.3125 62.7122 70.3125 62.9151 70.3125C63.1181 70.3125 63.321 70.5146 63.524 70.7166Z" fill="#145A82"/>
<path d="M60.6829 79.4054C60.8859 79.6075 61.0888 79.8096 60.8859 80.0116C60.8859 80.2137 60.48 80.6178 60.0741 81.2239C59.4652 81.8301 58.8563 82.4363 57.6386 82.8404C56.6239 83.2445 55.4062 83.0424 54.5943 82.4363C53.7825 82.0322 53.5796 81.2239 53.5796 81.0219C53.5796 80.6178 53.7825 80.6178 53.9855 80.6178C54.1884 80.6178 54.3914 80.6178 54.5943 80.6178C54.7973 80.6178 55.0003 80.8198 55.4062 81.0219C55.8121 81.2239 56.4209 81.2239 57.0298 81.2239C58.2475 80.8198 59.4652 79.6075 59.8711 79.4054C60.277 79.2034 60.48 79.2034 60.6829 79.4054Z" fill="#145A82"/>
<path d="M69.6126 61.4247C69.8156 61.6268 70.0185 62.0309 70.0185 62.637C70.0185 63.2432 69.8156 64.0514 69.2067 64.4555C68.5978 65.0617 67.989 65.2638 67.3801 65.4658C66.7713 65.4658 66.3654 65.4658 66.1624 65.2638C65.9595 65.0617 65.9595 64.8596 65.9595 64.6576C65.9595 64.4555 65.9595 64.2535 66.1624 64.0514C66.3654 63.8494 67.1772 63.6473 67.5831 63.2432C67.989 62.8391 68.1919 61.8288 68.1919 61.6268C68.3949 61.4247 68.3949 61.4247 68.5978 61.2227C69.2067 61.4247 69.4097 61.4247 69.6126 61.4247Z" fill="#145A82"/>
<path d="M71.642 71.7283C71.845 71.9304 72.048 72.1324 72.048 72.3345C72.048 72.5365 71.845 72.7386 71.4391 73.1427C71.0332 73.3448 70.4243 73.5468 69.8155 73.5468C69.2066 73.5468 68.5978 73.3448 68.1919 73.1427C67.786 72.9407 67.583 72.5365 67.583 72.3345C67.583 72.1324 67.583 71.9304 67.786 71.7283C67.9889 71.5263 68.1919 71.3242 68.3948 71.3242C68.5978 71.3242 69.2066 71.5263 70.0184 71.5263C70.6273 71.5263 71.2361 71.3242 71.642 71.3242C71.2361 71.3242 71.4391 71.5263 71.642 71.7283Z" fill="#145A82"/>
<path d="M71.8451 9.09034C72.8598 9.89856 73.4687 10.5047 73.8746 10.9088C74.0776 11.515 74.4835 12.3232 74.8894 13.5355C75.2953 14.7479 76.31 16.7684 77.1218 19.7992C77.9336 22.8301 78.9484 26.6691 78.7454 31.1143C78.5425 35.5595 77.3248 40.6109 74.2805 44.854C72.8598 47.0766 70.8303 48.6931 68.3949 50.3095C66.7713 51.5218 65.1477 52.5321 63.524 53.5424C64.1329 52.7342 64.5388 51.9259 64.9447 51.1177C69.6126 39.6006 70.4244 25.2547 60.2768 16.5664C56.4207 13.1314 52.7676 12.3232 48.0997 13.9397C42.0111 15.9602 36.1255 25.2547 36.5314 31.7205C33.0812 27.4773 25.572 23.0321 20.7012 25.0527C21.7159 21.8198 23.5425 18.3849 26.1809 15.152C27.6015 13.5355 29.0222 12.1212 30.6458 10.7068C32.2694 9.29239 34.096 7.87801 35.7196 6.66568C39.3728 4.24102 43.4318 2.62458 47.4908 2.01842C51.5499 1.41226 55.6089 1.81636 58.8562 2.62458C62.9152 3.63486 65.7565 4.84719 67.786 6.05951C69.8156 7.4739 71.2362 8.48417 71.8451 9.09034Z" fill="#84C1D4"/>
<path opacity="0.12" d="M79.1514 61.8286C80.775 64.2533 81.9927 67.4861 82.6016 70.719C83.2104 73.3457 82.6016 75.9724 81.5868 78.5992C80.775 75.9724 79.9632 72.9416 79.3543 71.9313C74.2805 64.0512 67.3802 59.606 58.6532 64.4553C53.1735 67.4861 48.9115 72.9416 47.6938 79.2053C46.2732 85.8731 50.9411 92.1368 54.5942 97.5923C54.3912 97.5923 54.3913 97.5923 54.1883 97.5923C52.9706 97.7944 52.1588 97.7944 51.7529 97.9964C51.5499 97.9964 51.347 97.7944 50.9411 97.5923C50.1293 97.1882 47.4909 96.1779 45.2584 93.3492C44.6496 92.743 44.0407 91.9348 43.6348 91.1265C43.4318 90.7224 43.0259 90.3183 42.823 89.9142C42.62 89.5101 42.4171 88.9039 42.0112 88.4998C41.1994 86.4793 40.3876 84.4587 39.9817 82.2361C39.1698 77.7909 39.7787 73.1437 40.7935 69.7087C41.8082 66.4759 43.2289 64.2533 43.6348 63.243C44.4466 63.243 45.2584 63.0409 46.0702 62.8389C48.7086 62.2327 51.5499 61.4245 54.1883 60.2122C56.8267 59.2019 59.465 57.9896 62.1034 56.5752C64.5389 55.3629 66.7713 53.7464 69.0038 52.332C69.4097 52.5341 69.8156 52.9382 70.4245 53.3423C72.251 53.9485 75.9042 56.7772 79.1514 61.8286Z" fill="#0A4863"/>
<path opacity="0.12" d="M42.417 63.243C41.6052 64.4554 40.3875 66.4759 39.5757 69.1026C38.7639 71.1232 38.358 73.5478 38.155 76.1746C36.9373 76.3766 35.9226 75.3663 34.5019 74.154C32.6753 76.1746 30.037 75.1643 30.037 72.7396C28.8192 73.3458 25.9779 74.9622 24.7602 73.7499C23.7454 72.5376 24.5572 70.517 25.3691 69.5067C23.1366 69.5067 18.2657 71.5273 17.8598 67.6882C17.4539 64.0513 23.3395 62.8389 25.572 62.0307C23.7454 61.0204 20.0923 60.0102 19.6864 57.7876C19.4834 56.1711 20.2953 54.9588 21.7159 54.5547C22.9336 54.9588 23.7454 55.3629 24.1513 55.565C25.572 56.1711 25.775 56.1711 25.9779 55.767C27.3986 57.3835 29.0222 58.9999 31.2547 60.4143C33.2842 61.8287 35.5167 62.8389 38.358 63.243C39.7787 63.243 41.1993 63.243 42.417 63.243Z" fill="#0A4863"/>
<path opacity="0.12" d="M85.0369 33.1356C85.8487 34.3479 84.2251 36.3685 83.8191 37.5808C90.7195 35.7623 82.1955 43.8445 81.1808 45.0568C85.2398 46.6733 83.4132 50.3102 79.5572 50.1082C82.3985 53.3411 78.7453 53.9472 76.107 53.7452C76.7158 54.3513 76.7158 55.1596 76.7158 55.9678C74.4834 53.7452 72.6568 52.5328 71.642 52.1287C71.2361 51.9267 70.8302 51.7246 70.4243 51.5226C72.6568 49.9061 74.6863 48.0876 76.107 45.865C78.7453 42.026 80.166 37.7828 80.5719 33.7418L80.7749 33.5397C81.9926 32.5294 84.2251 31.7212 85.0369 33.1356Z" fill="#0A4863"/>
<path opacity="0.26" d="M57.8412 98.3983C57.8412 98.6003 57.8412 98.6003 57.8412 98.3983C57.6382 99.0044 57.6382 100.015 57.4353 101.429C57.4353 101.833 57.2323 102.035 57.2323 102.439C54.9999 102.439 52.5644 101.025 51.9556 99.0044C51.1438 99.8127 49.7231 104.864 48.0995 103.652C47.0847 103.046 48.0995 99.0044 48.0995 97.9942C45.0552 99.8127 43.2287 105.672 39.9814 106.278C38.7637 103.046 42.8227 98.6003 45.4611 97.388C42.2139 95.9736 37.7489 95.9736 34.0958 95.1654C32.2692 94.7613 29.6309 94.7613 30.6456 92.5387C30.8486 92.3366 31.0515 91.9325 31.2545 91.7305C31.4574 91.7305 31.8633 91.7305 32.0663 91.7305C36.9371 92.1346 40.3873 92.9428 41.808 93.3469C42.6198 93.549 43.0257 93.549 43.4316 93.549C43.6346 93.9531 44.0405 94.1551 44.2434 94.5592C45.4611 95.9736 46.8818 97.1859 48.0995 97.7921C49.3172 98.3983 50.332 98.8024 50.7379 98.8024C51.5497 99.0044 51.9556 99.0044 52.1585 98.8024C52.3615 98.8024 52.3615 98.6003 52.5644 98.6003C52.9704 98.6003 53.5792 98.6003 54.391 98.6003C55.2028 98.8024 56.4205 98.6003 57.8412 98.3983Z" fill="#0A4863"/>
<path opacity="0.12" d="M78.9485 31.1168C78.7455 35.562 77.5278 40.6133 74.4835 44.8565C73.0629 47.0791 71.0333 48.6955 68.5979 50.312C66.9743 51.5243 65.3507 52.5346 63.7271 53.5448C62.9152 53.949 62.3064 54.3531 61.4946 54.7572C59.0592 56.1716 56.4208 57.3839 53.7824 58.3942C51.144 59.4044 48.5057 60.4147 46.0702 60.8188C45.6643 60.8188 45.2584 61.0209 44.8525 61.0209C44.8525 61.0209 44.8525 61.0209 44.8525 60.8188C44.8525 60.8188 44.6496 60.8188 44.2437 61.0209C42.4171 61.2229 40.3876 61.2229 38.764 61.0209C36.3285 60.6168 34.299 59.6065 32.4724 58.3942C30.8488 57.1818 29.4282 55.9695 28.2104 54.7572C32.0665 57.788 35.7197 58.5962 41.1994 58.1921C46.882 57.5859 51.5499 55.1613 56.4208 52.5346C61.4946 49.7058 66.7713 46.877 70.6274 42.4318C72.6569 40.2092 74.6865 37.7846 76.1071 35.1579C77.1219 33.3394 77.9337 30.5106 79.1514 28.0859C78.9485 29.0962 78.9485 30.1065 78.9485 31.1168Z" fill="#0A4863"/>
</g>
<defs>
<clipPath id="clip0_5594_1830">
<rect width="110" height="118" fill="white"/>
</clipPath>
</defs>
</svg>
